<svg width="135" height="109" viewBox="0 0 135 109" fill="none" xmlns="http://www.w3.org/2000/svg">
<path d="M5.77995 43.2908L131.816 3.61753L111.201 93.0458C111.161 93.0509 111.117 93.0526 111.074 93.0497C110.988 93.044 110.93 93.0228 110.896 93.0044L75.4543 73.8347L75.454 73.8346C73.4836 72.7691 70.97 72.8111 69.0392 73.9774L51.03 84.8555L52.5035 78.1396L56.0862 61.8104L109.114 21.3346L105.957 16.2641L38.3798 49.8921L35.9132 51.1195L36.9266 53.6815L46.7835 78.6001L49.5997 85.7195L47.9072 86.7418L47.9071 86.7419C47.8894 86.7525 47.8442 86.774 47.7648 86.7839C47.692 86.7929 47.6146 86.789 47.5459 86.7745L35.506 56.0552C35.506 56.0551 35.5059 56.0549 35.5059 56.0548C34.8822 54.4632 33.5538 53.3961 32.1388 52.8807L32.1378 52.8804L5.77995 43.2908Z" fill="#BCBCBC" stroke="black" stroke-width="6"/>
<path d="M60.0895 105.183C60.0895 105.183 60.0898 105.183 60.0903 105.184L60.0895 105.183Z" fill="#BCBCBC" stroke="black" stroke-width="6"/>
</svg>
