<svg width="20" height="20" viewBox="0 0 20 20" fill="none" xmlns="http://www.w3.org/2000/svg">
<path d="M10 1.875C14.5 1.875 18.125 5.5 18.125 10C18.125 14.5 14.5 18.125 10 18.125C5.5 18.125 1.875 14.5 1.875 10C1.875 5.5 5.5 1.875 10 1.875ZM10 0C4.5 0 0 4.5 0 10C0 15.5 4.5 20 10 20C15.5 20 20 15.5 20 10C20 4.5 15.5 0 10 0Z" fill="white"/>
<path d="M12.375 12.875C11.75 13.375 10.875 13.75 10 13.75C7.875 13.75 6.25 12.125 6.25 10C6.25 7.875 7.875 6.25 10 6.25C11 6.25 12 6.625 12.625 7.375L14 6C13 5 11.5 4.375 10 4.375C6.875 4.375 4.375 6.875 4.375 10C4.375 13.125 6.875 15.625 10 15.625C11.375 15.625 12.5 15.125 13.5 14.375L12.375 12.875Z" fill="white"/>
</svg>
