<svg width="136" height="108" viewBox="0 0 136 108" fill="none" xmlns="http://www.w3.org/2000/svg">
<path fill-rule="evenodd" clip-rule="evenodd" d="M14.6633 2.24194H132.788V15.6957H14.6633V2.24194Z" fill="#3E4F59"/>
<path fill-rule="evenodd" clip-rule="evenodd" d="M14.6633 15.6958H132.788V105.387H14.6633V15.6958Z" fill="#ACBEC2"/>
<path fill-rule="evenodd" clip-rule="evenodd" d="M14.6633 15.6958V105.387H86.4292C100.352 93.7004 111.996 79.0184 119.961 63.107C127.926 47.1955 131.874 30.7319 131.329 15.6958H14.6633Z" fill="#E8EDEE"/>
<path fill-rule="evenodd" clip-rule="evenodd" d="M19.4849 0C15.5193 0 12.2528 3.03831 12.2528 6.72688V96.4185C12.2528 97.6569 13.3321 98.6608 14.6635 98.6608C15.9949 98.6608 17.0742 97.6569 17.0742 96.4185V6.72688C17.0742 5.46193 18.125 4.48458 19.4849 4.48458H127.967C129.327 4.48458 130.378 5.46193 130.378 6.72688V13.4538H29.1278C27.7964 13.4538 26.7171 14.4577 26.7171 15.696C26.7171 16.9344 27.7964 17.9383 29.1278 17.9383H130.378V100.903C130.378 102.168 129.327 103.145 127.967 103.145H9.84207C8.51068 103.145 7.43136 104.149 7.43136 105.388C7.43136 106.626 8.51068 107.63 9.84207 107.63H127.967C131.933 107.63 135.199 104.592 135.199 100.903C135.199 69.511 135.199 38.119 135.199 6.72688C135.199 3.03831 131.933 0 127.967 0H19.4849Z" fill="black"/>
<path fill-rule="evenodd" clip-rule="evenodd" d="M123.146 6.72681C121.814 6.72681 120.735 7.73073 120.735 8.9691C120.735 10.2075 121.814 11.2114 123.146 11.2114C124.477 11.2114 125.556 10.2075 125.556 8.9691C125.556 7.73073 124.477 6.72681 123.146 6.72681Z" fill="#ED7161"/>
<path fill-rule="evenodd" clip-rule="evenodd" d="M113.503 6.72681C112.171 6.72681 111.092 7.73073 111.092 8.9691C111.092 10.2075 112.171 11.2114 113.503 11.2114C114.834 11.2114 115.913 10.2075 115.913 8.9691C115.913 7.73073 114.834 6.72681 113.503 6.72681Z" fill="#ECBA16"/>
<path fill-rule="evenodd" clip-rule="evenodd" d="M103.86 6.72681C102.528 6.72681 101.449 7.73073 101.449 8.9691C101.449 10.2075 102.528 11.2114 103.86 11.2114C105.191 11.2114 106.271 10.2075 106.271 8.9691C106.271 7.73073 105.191 6.72681 103.86 6.72681Z" fill="#42B05C"/>
<path fill-rule="evenodd" clip-rule="evenodd" d="M2.60981 103.145C1.97045 103.145 1.35731 103.381 0.905213 103.802C0.453117 104.222 0.199097 104.793 0.199097 105.387C0.199097 105.982 0.453117 106.552 0.905213 106.973C1.35731 107.393 1.97045 107.63 2.60981 107.63C3.24917 107.63 3.86231 107.393 4.31441 106.973C4.7665 106.552 5.02052 105.982 5.02052 105.387C5.02052 104.793 4.7665 104.222 4.31441 103.802C3.86231 103.381 3.24917 103.145 2.60981 103.145Z" fill="black"/>
<path fill-rule="evenodd" clip-rule="evenodd" d="M21.8956 13.4536C20.5642 13.4536 19.4848 14.4575 19.4848 15.6959C19.4848 16.9343 20.5642 17.9382 21.8956 17.9382C23.2269 17.9382 24.3063 16.9343 24.3063 15.6959C24.3063 14.4575 23.2269 13.4536 21.8956 13.4536Z" fill="black"/>
<path d="M103.86 35.8765H43.592C40.9292 35.8765 38.7706 37.8843 38.7706 40.361V80.7223C38.7706 83.1991 40.9292 85.2069 43.592 85.2069H103.86C106.523 85.2069 108.681 83.1991 108.681 80.7223V40.361C108.681 37.8843 106.523 35.8765 103.86 35.8765Z" fill="#31CFFF"/>
<path d="M108.681 35.8765H38.7706V49.3302H108.681V35.8765Z" fill="#FE73C5"/>
<path fill-rule="evenodd" clip-rule="evenodd" d="M43.592 35.8765C40.921 35.8765 38.7706 37.8766 38.7706 40.361V80.7223C38.7706 83.2068 40.921 85.2069 43.592 85.2069H90.8034C98.0109 78.5624 101.974 70.1081 101.981 61.365C101.978 51.8559 97.2958 42.7186 88.9201 35.8765H43.592Z" fill="#31CFFF"/>
<path fill-rule="evenodd" clip-rule="evenodd" d="M38.7706 35.8765V49.3302H98.0497C98.2156 48.5864 98.3036 47.8376 98.3134 47.0879C98.3124 43.0591 96.0509 39.1341 91.8534 35.8765H38.7706Z" fill="#FE93D3"/>
<path fill-rule="evenodd" clip-rule="evenodd" d="M43.592 33.6343C39.6271 33.6343 36.3599 36.6733 36.3599 40.3612C36.3599 44.0005 36.3599 47.6398 36.3599 51.2792C36.3599 52.5176 37.4392 53.5215 38.7706 53.5215C40.102 53.5215 41.1813 52.5176 41.1813 51.2792V49.3303H106.271V71.8145C106.271 73.0529 107.35 74.0568 108.681 74.0568C110.013 74.0568 111.092 73.0529 111.092 71.8145C111.092 61.3301 111.092 50.8456 111.092 40.3612C111.092 36.6733 107.825 33.6343 103.86 33.6343H43.592ZM43.592 38.1189H103.86C105.237 38.1189 106.271 39.0801 106.271 40.3612V44.8457H41.1813V40.3612C41.1813 39.0801 42.2148 38.1189 43.592 38.1189ZM38.7706 58.2995C37.4392 58.2995 36.3599 59.3034 36.3599 60.5418V80.7224C36.3599 84.4103 39.6271 87.4493 43.592 87.4493H103.86C107.825 87.4493 111.092 84.4103 111.092 80.7224C111.092 79.484 110.013 78.4801 108.681 78.4801C107.35 78.4801 106.271 79.484 106.271 80.7224C106.271 82.0034 105.237 82.9647 103.86 82.9647H43.592C42.2148 82.9647 41.1813 82.0034 41.1813 80.7224V60.5418C41.1813 59.3034 40.102 58.2995 38.7706 58.2995Z" fill="black"/>
<path fill-rule="evenodd" clip-rule="evenodd" d="M61.9739 54.3045C61.7266 54.1204 61.4428 53.9833 61.1385 53.9012C60.8343 53.8192 60.5156 53.7937 60.2008 53.8262C59.886 53.8588 59.5811 53.9487 59.3036 54.0909C59.0262 54.2331 58.7816 54.4247 58.5838 54.6549L48.941 65.8664C48.5987 66.2641 48.4122 66.7583 48.4122 67.2678C48.4122 67.7772 48.5987 68.2715 48.941 68.6692L58.5838 79.8807C58.7816 80.1108 59.0262 80.3025 59.3036 80.4447C59.5811 80.5869 59.886 80.6768 60.2008 80.7094C60.5156 80.7419 60.8343 80.7164 61.1385 80.6343C61.4428 80.5522 61.7266 80.4152 61.9739 80.231C62.2214 80.0471 62.4274 79.8195 62.5802 79.5615C62.7331 79.3034 62.8298 79.0199 62.8648 78.727C62.8998 78.4342 62.8724 78.1378 62.7842 77.8548C62.6959 77.5718 62.5486 77.3078 62.3506 77.0778L53.9131 67.2678L62.3506 57.4578C62.5486 57.2278 62.6959 56.9637 62.7842 56.6807C62.8724 56.3978 62.8998 56.1014 62.8648 55.8085C62.8298 55.5157 62.7331 55.2321 62.5802 54.9741C62.4274 54.716 62.2214 54.4885 61.9739 54.3045Z" fill="black"/>
<path fill-rule="evenodd" clip-rule="evenodd" d="M85.4786 54.3045C85.2311 54.4885 85.0251 54.716 84.8722 54.9741C84.7194 55.2321 84.6226 55.5157 84.5877 55.8085C84.5527 56.1014 84.5801 56.3978 84.6683 56.6807C84.7565 56.9637 84.9039 57.2278 85.1019 57.4578L93.5394 67.2678L85.1019 77.0778C84.9039 77.3078 84.7565 77.5718 84.6683 77.8548C84.5801 78.1378 84.5527 78.4342 84.5877 78.727C84.6226 79.0199 84.7194 79.3034 84.8722 79.5615C85.0251 79.8195 85.2311 80.0471 85.4786 80.231C85.7258 80.4152 86.0097 80.5522 86.314 80.6343C86.6182 80.7164 86.9368 80.7419 87.2517 80.7094C87.5665 80.6768 87.8714 80.5869 88.1488 80.4447C88.4263 80.3025 88.6709 80.1108 88.8686 79.8807L98.5115 68.6692C98.8538 68.2715 99.0403 67.7772 99.0403 67.2678C99.0403 66.7583 98.8538 66.2641 98.5115 65.8664L88.8686 54.6549C88.6709 54.4247 88.4263 54.2331 88.1488 54.0909C87.8714 53.9487 87.5665 53.8588 87.2517 53.8262C86.9368 53.7937 86.6182 53.8192 86.314 53.9012C86.0097 53.9833 85.7258 54.1204 85.4786 54.3045Z" fill="black"/>
<path fill-rule="evenodd" clip-rule="evenodd" d="M78.9048 51.7165C78.3072 51.925 77.823 52.3455 77.5582 52.8858L65.5047 77.551C65.24 78.0923 65.2173 78.7092 65.4415 79.266C65.6658 79.8228 66.1187 80.274 66.7006 80.5203C67.2825 80.7665 67.9457 80.7876 68.5444 80.579C69.1431 80.3704 69.6281 79.9491 69.8929 79.4079L81.9465 54.7427C82.2112 54.2014 82.2339 53.5845 82.0096 53.0277C81.7853 52.4708 81.3324 52.0197 80.7506 51.7734C80.462 51.6515 80.1505 51.5838 79.8338 51.574C79.5171 51.5642 79.2014 51.6127 78.9048 51.7165Z" fill="black"/>
</svg>
