<svg width="32" height="32" viewBox="0 0 32 32" fill="none" xmlns="http://www.w3.org/2000/svg">
<path d="M27.2 0H4.8C3.52696 0 2.30606 0.632141 1.40589 1.75736C0.505713 2.88258 0 4.4087 0 6V26C0 27.5913 0.505713 29.1174 1.40589 30.2426C2.30606 31.3679 3.52696 32 4.8 32H27.2C28.473 32 29.6939 31.3679 30.5941 30.2426C31.4943 29.1174 32 27.5913 32 26V6C32 4.4087 31.4943 2.88258 30.5941 1.75736C29.6939 0.632141 28.473 0 27.2 0ZM26.128 4L16 13.5L5.872 4H26.128ZM27.2 28H4.8C4.37565 28 3.96869 27.7893 3.66863 27.4142C3.36857 27.0391 3.2 26.5304 3.2 26V6.5L15.04 17.6C15.317 17.8596 15.6538 18 16 18C16.3462 18 16.683 17.8596 16.96 17.6L28.8 6.5V26C28.8 26.5304 28.6314 27.0391 28.3314 27.4142C28.0313 27.7893 27.6243 28 27.2 28Z" fill="white"/>
</svg>
