<svg width="32" height="32" viewBox="0 0 32 32" fill="none" xmlns="http://www.w3.org/2000/svg">
<path d="M16 32C24.8366 32 32 24.8366 32 16C32 7.16344 24.8366 0 16 0C7.16344 0 0 7.16344 0 16C0 24.8366 7.16344 32 16 32Z" fill="white"/>
<path d="M21.2025 4.91138H17.6581C15.5548 4.91138 13.2152 5.79602 13.2152 8.84493C13.2255 9.90729 13.2152 10.9247 13.2152 12.0698H10.7819V15.9419H13.2905V27.089H17.9002V15.8683H20.9428L21.218 12.0589H17.8208C17.8208 12.0589 17.8284 10.3643 17.8208 9.87219C17.8208 8.66733 19.0745 8.73633 19.1499 8.73633C19.7465 8.73633 20.9065 8.73807 21.2043 8.73633V4.91138H21.2025Z" fill="black"/>
</svg>
