<svg width="32" height="32" viewBox="0 0 32 32" fill="none" xmlns="http://www.w3.org/2000/svg">
<path d="M24.8175 0H7.18254C3.21573 0 0 3.21573 0 7.18254V24.8175C0 28.7843 3.21573 32 7.18254 32H24.8175C28.7843 32 32 28.7843 32 24.8175V7.18254C32 3.21573 28.7843 0 24.8175 0Z" fill="white"/>
<path d="M8.86732 13.3002H12.1926V24.0297H8.86732V13.3002ZM10.5632 7.96875C10.9442 7.96876 11.3166 8.08159 11.6335 8.29303C11.9505 8.50447 12.1977 8.80503 12.344 9.1568C12.4902 9.50857 12.5291 9.89578 12.4556 10.2696C12.382 10.6434 12.1994 10.9871 11.9308 11.2572C11.6622 11.5274 11.3196 11.712 10.9462 11.7876C10.5728 11.8633 10.1854 11.8267 9.83279 11.6824C9.48019 11.5381 9.17821 11.2926 8.96496 10.9769C8.75171 10.6612 8.63674 10.2894 8.63455 9.90848C8.63309 9.65427 8.6819 9.40229 8.77817 9.16701C8.87444 8.93174 9.01627 8.71782 9.19551 8.53755C9.37474 8.35728 9.58785 8.21423 9.82257 8.11661C10.0573 8.019 10.309 7.96875 10.5632 7.96875Z" fill="black"/>
<path d="M14.3207 13.3H17.524V14.7631C17.8447 14.2158 18.3079 13.7659 18.8643 13.4614C19.4206 13.1569 20.0493 13.0091 20.683 13.0339C24.0083 13.0339 24.6844 15.2508 24.6844 18.1437V24.0294H21.3592V18.842C21.3592 17.6006 21.3592 15.9934 19.63 15.9934C17.9009 15.9934 17.6349 17.3457 17.6349 18.7423V24.0516H14.3096L14.3207 13.3Z" fill="black"/>
</svg>
