<svg width="136" height="108" viewBox="0 0 136 108" fill="none" xmlns="http://www.w3.org/2000/svg">
<path d="M3.29959 56.1549C4.79076 56.1549 5.99959 55.1074 5.99959 53.8151C5.99959 52.5229 4.79076 51.4753 3.29959 51.4753C1.80843 51.4753 0.599594 52.5229 0.599594 53.8151C0.599594 55.1074 1.80843 56.1549 3.29959 56.1549Z" fill="#2D2220"/>
<path d="M135.6 95.9311C135.6 94.6395 134.39 93.5913 132.9 93.5913H127.5C126.009 93.5913 124.8 94.6395 124.8 95.9311C124.8 97.2227 126.009 98.2709 127.5 98.2709H132.9C134.39 98.2709 135.6 97.2227 135.6 95.9311Z" fill="#31CFFF"/>
<path d="M97.7996 93.5913H59.9996V98.2709H97.7996V93.5913Z" fill="#31CFFF"/>
<path d="M92.3996 102.95H38.3996V107.63H92.3996V102.95Z" fill="#31CFFF"/>
<path d="M83.4897 74.0306C79.5531 77.3999 71.1237 80.0158 64.9677 81.518C66.6417 76.23 69.7197 68.7895 73.6077 65.467L83.4897 74.0306Z" fill="#BCBCBC"/>
<path d="M129.282 21.058C127.338 20.4029 125.448 20.1221 123.612 20.1221C116.214 20.1221 110.22 24.3805 110.22 24.3805C110.22 24.3805 93.9656 35.6583 80.5736 45.345C78.7376 33.1313 74.7416 16.2381 70.7996 9.35913C65.3996 0 59.9996 0 59.9996 0H22.1996C22.1996 0 16.7996 0 11.3996 9.35913C7.29565 16.4721 3.19165 34.4884 1.46365 46.7956H6.86365C7.45765 42.5372 8.37565 37.6237 9.45565 32.757H72.7437C73.0677 34.3012 73.3917 35.8923 73.7157 37.4365C74.5257 41.5077 75.1736 45.4854 75.6056 48.9015C70.5836 52.5983 66.4257 55.7336 64.3737 57.4651C58.9737 62.1446 55.4636 71.8781 53.8976 77.0678C52.3316 76.5577 50.5496 76.2254 48.6596 76.2254C45.6896 76.2254 42.3956 77.0678 39.0476 79.5479H38.3996C37.3196 79.5479 36.3476 79.5479 35.3216 79.4543C34.3496 79.4543 33.3776 79.3561 32.4596 79.2671C13.3976 77.634 7.88965 67.9473 6.43165 60.8343H1.03165C2.70565 70.0999 9.99565 82.8751 34.4036 84.1386C27.0056 94.0125 30.0296 107.115 30.0296 107.115C30.0296 107.115 32.9996 107.63 37.4816 107.63C51.6296 107.63 57.0836 102.95 57.0836 102.95C63.2936 98.8324 65.2376 93.5913 65.2376 93.5913C65.9936 90.9239 65.5616 88.4438 64.6436 86.3848C70.6916 85.0277 81.8696 82.0328 87.2696 77.3064C94.9376 70.7129 125.448 37.6284 125.448 37.6284C125.448 37.6284 132.684 30.23 129.282 21.058ZM38.3996 28.0774H10.5356C12.2636 21.1048 14.2616 14.7874 16.2056 11.4649C19.3376 6.03664 22.0376 4.86675 22.6316 4.67956H38.3996V28.0774ZM43.7996 28.0774V4.67956H59.5676C60.0536 4.81995 62.1056 5.70907 64.6436 9.35913C65.0756 9.96747 65.5077 10.6694 65.9937 11.4649C67.9377 14.7874 69.9356 21.1048 71.6636 28.0774H43.7996ZM44.4476 102.436C41.2076 102.81 38.1296 102.908 34.8896 102.908C34.6736 100.054 34.8356 97.1946 35.4836 94.3915C36.7796 88.6403 41.8016 79.8381 50.0636 81.008C55.4096 81.7567 60.2696 85.9262 60.2696 90.7414C60.2696 97.5689 50.9816 101.313 44.4476 102.436ZM64.9676 81.518C63.9956 81.752 63.0776 81.9392 62.2676 82.1264L61.0796 81.1437L60.7557 80.8161L60.3237 80.4464L58.8656 79.1361C59.5136 76.7963 60.5936 73.5674 61.9436 70.4321L72.3657 79.4169C69.8277 80.2545 67.2356 80.9565 64.9676 81.518ZM77.6577 77.4L64.2711 65.8415C65.4591 63.7825 66.755 62.0042 68.213 60.7875L73.613 65.4671L83.495 74.0307C82.0316 75.2474 79.9797 76.4173 77.6577 77.4ZM123.882 30.4172C122.91 32.8973 121.398 34.5352 121.236 34.6756C121.02 34.9563 97.7457 60.1792 87.1617 70.6146L72.1496 57.6054C84.1916 48.4382 113.244 28.2178 113.622 28.0353C113.622 27.9885 118.374 24.8064 123.617 24.8064C123.99 24.8064 124.373 24.8532 124.751 24.8532C125.016 26.9543 124.584 28.8729 123.882 30.4172Z" fill="#2D2220"/>
<path d="M60.2697 90.7369C60.2697 92.7023 59.4057 94.9064 56.7597 97.1947C52.1156 101.219 45.6357 102.576 40.2897 102.862C39.9657 98.1306 40.3976 89.567 46.8776 83.9562C48.3896 82.6459 49.9017 81.7521 51.4137 81.2888C53.5737 81.8504 55.3017 82.9267 56.1657 83.4882L56.5437 83.7737L57.1916 84.3305C58.4336 85.5425 60.2697 87.8823 60.2697 90.7369Z" fill="#31CFFF"/>
<path d="M123.882 30.4172C122.91 32.8974 121.398 34.5353 121.236 34.6756C121.02 34.9564 97.7457 60.1793 87.1617 70.6147L77.5497 62.2851C89.5917 53.1178 118.644 32.8974 119.022 32.7149C119.022 32.6634 121.02 31.3064 123.882 30.4172Z" fill="#E371FF"/>
<path d="M71.6636 28.0776H49.1996V9.35938H64.6436C65.0756 9.96772 65.5076 10.6697 65.9936 11.4652C67.9376 14.7877 69.9356 21.1051 71.6636 28.0776Z" fill="#FFA28D"/>
<path d="M38.3996 9.35938V28.0776H17.1776C18.5816 23.0237 20.0936 18.7185 21.6056 16.1447C24.7376 10.7164 27.4376 9.54656 28.0316 9.35938H38.3996Z" fill="#FFA28D"/>
<path d="M71.6636 28.0776H49.1996V9.35938H64.6436C65.0756 9.96772 65.5076 10.6697 65.9936 11.4652C67.9376 14.7877 69.9356 21.1051 71.6636 28.0776Z" fill="#BCBCBC"/>
<path d="M38.3996 9.35938V28.0776H17.1776C18.5816 23.0237 20.0936 18.7185 21.6056 16.1447C24.7376 10.7164 27.4376 9.54656 28.0316 9.35938H38.3996Z" fill="#BCBCBC"/>
<path d="M75.6056 48.9015C70.5836 52.5983 66.4257 55.7336 64.3737 57.4651C58.9737 62.1446 55.4636 71.8781 53.8976 77.0678C52.3316 76.5577 50.5496 76.2254 48.6596 76.2254C45.6896 76.2254 42.3956 77.0678 39.0476 79.5479H38.3996C37.3196 79.5479 36.3476 79.5479 35.3216 79.4543C34.3496 79.4543 33.3776 79.3561 32.4596 79.2672C23.4956 73.8903 22.1996 65.3735 22.1996 60.8344C22.1996 56.0612 23.6036 46.6085 25.6556 37.4365H73.7157C74.5257 41.5077 75.1736 45.4854 75.6056 48.9015Z" fill="#BCBCBC"/>
<path d="M119.4 95.9311C119.4 94.6395 118.19 93.5913 116.7 93.5913H105.9C104.409 93.5913 103.2 94.6395 103.2 95.9311C103.2 97.2227 104.409 98.2709 105.9 98.2709H116.7C118.19 98.2709 119.4 97.2227 119.4 95.9311Z" fill="#31CFFF"/>
<path d="M114 105.29C114 103.999 112.79 102.95 111.3 102.95H100.5C99.0092 102.95 97.7996 103.999 97.7996 105.29C97.7996 106.582 99.0092 107.63 100.5 107.63H111.3C112.79 107.63 114 106.582 114 105.29Z" fill="#31CFFF"/>
<path d="M130.2 105.29C130.2 103.999 128.99 102.95 127.5 102.95H122.1C120.609 102.95 119.4 103.999 119.4 105.29C119.4 106.582 120.609 107.63 122.1 107.63H127.5C128.99 107.63 130.2 106.582 130.2 105.29Z" fill="#31CFFF"/>
</svg>
