<svg width="136" height="109" viewBox="0 0 136 109" fill="none" xmlns="http://www.w3.org/2000/svg">
<path d="M44.7968 36.6253C49.0523 34.1763 47.8847 23.2825 49.632 22.1278C54.235 19.0035 61.578 18.3049 66.6977 16.3715C67.9606 16.7669 79.3711 16.3234 80.9191 16.3715C83.3515 16.4471 86.8917 19.5851 89.7293 17.9415L90.26 17.958C91.1446 17.9855 91.9406 18.0103 92.7773 18.1016C93.5734 18.1263 94.3657 18.2196 95.1141 18.3049C102.248 22.2808 102.981 28.2503 102.806 31.4142C103.958 40.0364 87.1765 54.96 86.0387 61.356L63.0004 61.356C62.4939 58.4976 45.0189 39.0174 44.7968 36.6253Z" fill="#BCBCBC"/>
<path d="M0.798584 75.6246V103.4C0.798584 104.588 2.29252 105.549 4.13514 105.549H28.5369C30.2423 105.549 31.5953 104.714 31.7953 103.65C39.9562 105.183 57.166 108.205 66.1481 108.205C66.7737 108.205 67.3602 108.19 67.8994 108.159C84.2173 107.227 126.411 93.2313 127.987 92.7026C132.538 91.4407 135.799 89.5107 135.799 85.9176C135.799 80.6434 126.747 77.4559 121.646 79.1472L101.441 85.9029C98.3934 86.552 89.7597 87.1056 88.7733 87.1145C88.2686 86.6678 87.6276 86.2606 86.8272 85.9175C60.2935 76.3984 59.8592 76.0967 58.6507 76.0967H31.8735V75.6246C31.8735 74.4372 30.3796 73.4762 28.537 73.4762H4.13514C2.29256 73.4763 0.798584 74.4372 0.798584 75.6246ZM31.8735 80.3935H57.779L83.3945 89.6353C83.3359 90.2395 82.2997 91.9011 81.4705 92.7257L60.7457 88.8443C58.9683 88.5086 57.1241 89.1653 56.6109 90.3066C56.0961 91.4459 57.1127 92.6375 58.8819 92.969L79.7631 96.8714C80.5386 97.0707 81.3711 97.1714 82.2394 97.1714C86.1287 97.1714 88.5781 93.6798 89.5664 91.3877C90.5491 91.3579 100.013 90.7569 103.821 89.9206C104.19 89.843 106.922 88.9047 124.254 83.1167C126.841 82.9265 129.125 84.2332 129.125 85.9176C129.125 87.8118 126.997 88.2991 125.134 88.8192C124.709 88.9618 82.329 103.023 67.3096 103.879C60.3134 104.292 41.1605 100.967 31.8734 99.1858L31.8735 80.3935ZM7.47169 77.773H25.2004V101.252H7.47169V77.773ZM40.9643 33.4124C40.9643 38.263 43.3853 42.8535 47.9665 46.6887C52.3571 50.3644 55.8305 57.7264 57.3261 63.3911C57.5982 64.4233 58.9879 65.1786 60.6154 65.1786H89.0152C90.6509 65.1786 92.0438 64.4149 92.3078 63.3764C93.66 58.0516 96.8076 50.5721 101.231 47.016C106.996 42.3793 109.53 36.5468 108.365 30.5947C106.442 20.7676 93.9321 12.8476 78.6211 11.7629C58.258 10.3488 40.9643 20.5913 40.9643 33.4124ZM77.8912 16.0344C90.1703 16.903 100.203 23.2537 101.744 31.1318C102.682 35.9216 100.649 40.6086 96.0207 44.3305C90.444 48.814 87.461 56.7613 86.2228 60.8818H78.1388V43.999L84.5985 39.8407C85.9019 39.0015 85.9019 37.642 84.5985 36.8028C83.2952 35.9636 81.1838 35.9635 79.8805 36.8028L74.8023 40.0715L69.7242 36.8028C68.4208 35.9635 66.3094 35.9635 65.0061 36.8028C63.7028 37.642 63.7028 39.0015 65.0061 39.8407L71.4658 43.999V60.8818H63.3867C61.6354 55.3116 58.1505 48.1678 53.2549 44.0703C49.5795 40.9925 47.6375 37.3063 47.6375 33.4123C47.6374 23.1132 61.5473 14.8847 77.8912 16.0344ZM78.1388 8.65568V2.93646C78.1388 1.74899 76.6449 0.788086 74.8023 0.788086C72.9597 0.788086 71.4657 1.74899 71.4657 2.93646V8.65568C71.4657 9.84315 72.9597 10.8041 74.8023 10.8041C76.6449 10.8041 78.1388 9.84315 78.1388 8.65568Z" fill="#010101"/>
<path d="M44.1169 10.2315C42.8136 9.39225 40.7022 9.39225 39.3989 10.2315C38.0955 11.0707 38.0955 12.4302 39.3989 13.2694L44.9576 16.8486C46.2609 17.6878 48.3723 17.6879 49.6757 16.8486C50.9791 16.0094 50.9791 14.6499 49.6757 13.8107L44.1169 10.2315ZM104.647 49.2065C103.344 48.3673 101.233 48.3673 99.9292 49.2065C98.6259 50.0457 98.6259 51.4052 99.9292 52.2444L105.488 55.8237C106.791 56.6628 108.903 56.6629 110.206 55.8237C111.509 54.9844 111.509 53.6249 110.206 52.7857L104.647 49.2065ZM28.0712 30.8781C26.2286 30.8781 24.7346 31.839 24.7346 33.0265C24.7346 34.214 26.2286 35.1749 28.0712 35.1749H36.9535C38.7961 35.1749 40.29 34.214 40.29 33.0265C40.29 31.839 38.7961 30.8781 36.9535 30.8781H28.0712ZM121.535 35.1749C123.378 35.1749 124.872 34.214 124.872 33.0265C124.872 31.839 123.378 30.8781 121.535 30.8781H112.653C110.811 30.8781 109.317 31.839 109.317 33.0265C109.317 34.214 110.811 35.1749 112.653 35.1749H121.535ZM44.9576 49.2065L39.3988 52.7857C38.0955 53.6249 38.0955 54.9845 39.3988 55.8237C40.7021 56.6628 42.8136 56.6629 44.1169 55.8237L49.6757 52.2444C50.979 51.4052 50.979 50.0457 49.6757 49.2065C48.3723 48.3673 46.2609 48.3673 44.9576 49.2065ZM105.488 10.2315L99.9292 13.8107C98.6259 14.6499 98.6259 16.0094 99.9292 16.8486C101.233 17.6878 103.344 17.6879 104.647 16.8486L110.206 13.2694C111.509 12.4302 111.509 11.0707 110.206 10.2315C108.903 9.39227 106.791 9.39225 105.488 10.2315ZM65.3272 68.6174C63.4846 68.6174 61.9907 69.5783 61.9907 70.7658C61.9907 71.9532 63.4846 72.9142 65.3272 72.9142H84.2778C86.1204 72.9142 87.6143 71.9532 87.6143 70.7658C87.6143 69.5783 86.1204 68.6174 84.2778 68.6174H65.3272Z" fill="#31CFFF"/>
</svg>
