<svg width="136" height="109" viewBox="0 0 136 109" fill="none" xmlns="http://www.w3.org/2000/svg">
<rect x="5.8241" y="35.4707" width="124.261" height="47.0881" fill="#BCBCBC"/>
<path d="M126.268 30.1059H100.841C100.835 30.1006 100.829 30.0948 100.822 30.0897L65.8727 2.22635C64.7684 1.34486 63.3285 0.780345 61.7786 0.621274C60.2287 0.462204 58.6564 0.717563 57.3081 1.34734C55.9597 1.97711 54.9116 2.94572 54.3278 4.10137C53.744 5.25703 53.6577 6.53443 54.0822 7.73342L37.2025 30.1077C37.1871 30.1077 37.1721 30.1059 37.1567 30.1059H9.1303C6.76241 30.1081 4.49227 30.8589 2.81792 32.1938C1.14357 33.5287 0.201754 35.3385 0.199097 37.2263V93.4116C0.201459 95.2996 1.14317 97.1098 2.81759 98.4449C4.49202 99.7801 6.7624 100.531 9.13057 100.533H13.9194L9.19417 106.126C9.02463 106.327 8.92677 106.56 8.91108 106.802C8.89538 107.044 8.96243 107.284 9.10506 107.498C9.24768 107.711 9.46051 107.89 9.72074 108.015C9.98098 108.139 10.2788 108.205 10.5824 108.205H19.0135C19.2877 108.205 19.5577 108.152 19.7997 108.049C20.0418 107.946 20.2485 107.798 20.4017 107.616L26.386 100.533H109.012L114.997 107.618C115.15 107.799 115.357 107.947 115.599 108.049C115.841 108.152 116.111 108.205 116.385 108.205H124.816C125.119 108.205 125.417 108.139 125.678 108.015C125.938 107.89 126.151 107.711 126.293 107.498C126.436 107.284 126.503 107.044 126.487 106.802C126.472 106.56 126.374 106.326 126.204 106.126L121.479 100.533H126.268C128.636 100.531 130.906 99.7801 132.581 98.4449C134.255 97.1098 135.197 95.2996 135.199 93.4116V37.2263C135.196 35.3385 134.255 33.5287 132.58 32.1938C130.906 30.8589 128.636 30.1081 126.268 30.1059ZM58.2527 4.1123C58.9498 3.55764 59.8945 3.24613 60.8794 3.24613C61.8642 3.24613 62.8089 3.55764 63.506 4.1123L98.4554 31.9757C98.5669 32.0644 98.671 32.1589 98.7669 32.2585C99.3442 32.8541 99.6153 33.6027 99.5252 34.3519C99.4351 35.1012 98.9905 35.795 98.2818 36.2923C97.5732 36.7897 96.6535 37.0532 95.7099 37.0294C94.7662 37.0055 93.8693 36.6961 93.2015 36.1641L58.2561 8.30426C57.9102 8.02945 57.6357 7.70296 57.4484 7.34347C57.261 6.98399 57.1644 6.59857 57.1641 6.20928C57.1637 5.81999 57.2597 5.43447 57.4465 5.07479C57.6334 4.71512 57.9073 4.38835 58.2527 4.11319V4.1123ZM50.6609 60.2306L63.6511 70.587C64.4065 71.1887 64.8312 72.005 64.8317 72.8564C64.8323 73.7077 64.4087 74.5244 63.6541 75.1267C62.898 75.7275 61.8738 76.0646 60.8063 76.0641C59.7389 76.0637 58.7152 75.7257 57.9598 75.1243L43.5525 63.6416L50.6609 60.2306ZM50.0626 57.4038L50.0562 57.4065L47.0438 58.8519L35.7769 64.2556L23.0205 54.0829L56.0422 10.313L90.6789 37.927L50.0626 57.4038ZM17.0002 59.294L20.9121 56.1759L27.0351 61.0585L33.1503 65.9347L29.2406 69.0531L17.0002 59.294ZM14.6371 61.1842L26.8702 70.9366C25.2349 72.1777 23.0557 72.86 20.798 72.8379C18.5403 72.8157 16.3829 72.0909 14.7863 70.8181C13.1897 69.5452 12.2804 67.8253 12.2525 66.0253C12.2247 64.2254 13.0804 62.488 14.6371 61.1842ZM9.1303 32.7744H35.1906L19.5844 53.4609L12.4244 59.1692C10.1735 60.9638 8.9089 63.3977 8.90887 65.9355C8.90885 68.4734 10.1734 70.9073 12.4243 72.7019C14.6752 74.4964 17.728 75.5046 20.9113 75.5046C24.0946 75.5046 27.1475 74.4965 29.3984 72.702L30.4243 71.8839L36.5573 66.9943L40.5959 65.0577L55.5937 77.0118C56.2782 77.5575 57.0909 77.9904 57.9853 78.2857C58.8796 78.5811 59.8382 78.7331 60.8062 78.7331C61.7743 78.7331 62.7329 78.581 63.6272 78.2857C64.5216 77.9903 65.3342 77.5574 66.0187 77.0117C66.7032 76.4659 67.2462 75.8181 67.6166 75.105C67.9871 74.392 68.1777 73.6278 68.1777 72.856C68.1777 72.0842 67.987 71.32 67.6166 70.607C67.2461 69.894 66.7031 69.2461 66.0186 68.7004L53.6161 58.813L93.9156 39.4888C95.1226 39.7639 96.4001 39.7758 97.6147 39.5231C98.8294 39.2704 99.9368 38.7625 100.821 38.0522C101.672 37.3726 102.29 36.5312 102.618 35.6076C102.946 34.6841 102.973 33.709 102.696 32.7749H126.268C127.748 32.7761 129.168 33.2455 130.215 34.08C131.261 34.9145 131.85 36.0461 131.852 37.2263V84.0828H3.5462V37.2263C3.54783 36.046 4.13667 34.9144 5.18354 34.0798C6.23041 33.2452 7.6498 32.7757 9.1303 32.7744ZM131.852 93.4112C131.85 94.5915 131.262 95.723 130.215 96.5576C129.168 97.3922 127.748 97.8616 126.268 97.8628H9.1303C7.64985 97.8615 6.2305 97.3921 5.18364 96.5576C4.13678 95.723 3.5479 94.5914 3.5462 93.4112V86.7513H131.852V93.4112ZM18.1229 105.537H13.727L17.9549 100.533H22.3505L18.1229 105.537ZM121.671 105.537H117.275L113.047 100.533H117.443L121.671 105.537Z" fill="black"/>
<path d="M119.558 65.2649H111.871C111.427 65.2649 111.001 65.4055 110.688 65.6557C110.374 65.9059 110.197 66.2453 110.197 66.5991C110.197 66.953 110.374 67.2924 110.688 67.5426C111.001 67.7928 111.427 67.9334 111.871 67.9334H119.558C120.949 67.9253 122.28 67.4791 123.26 66.692C124.24 65.9049 124.79 64.8408 124.79 63.7317C124.79 62.6227 124.24 61.5586 123.26 60.7715C122.28 59.9844 120.949 59.5382 119.558 59.5301H115.468C114.958 59.5301 114.468 59.3686 114.108 59.081C113.747 58.7935 113.544 58.4035 113.544 57.9969C113.544 57.5902 113.747 57.2002 114.108 56.9127C114.468 56.6251 114.958 56.4636 115.468 56.4636H123.155C123.598 56.4636 124.024 56.323 124.338 56.0728C124.652 55.8226 124.828 55.4832 124.828 55.1294C124.828 54.7755 124.652 54.4361 124.338 54.1859C124.024 53.9357 123.598 53.7951 123.155 53.7951H115.468C114.07 53.7951 112.729 54.2378 111.741 55.0258C110.753 55.8138 110.197 56.8825 110.197 57.9969C110.197 59.1112 110.753 60.18 111.741 60.9679C112.729 61.7559 114.07 62.1986 115.468 62.1986H119.558C120.064 62.2035 120.547 62.3671 120.903 62.6541C121.259 62.9411 121.458 63.3283 121.458 63.7317C121.458 64.1352 121.259 64.5224 120.903 64.8094C120.547 65.0964 120.064 65.26 119.558 65.2649ZM79.281 67.9334C79.7248 67.9334 80.1505 67.7928 80.4644 67.5426C80.7782 67.2924 80.9545 66.953 80.9545 66.5991V62.1993H88.8914V66.5991C88.8914 66.953 89.0677 67.2924 89.3815 67.5426C89.6954 67.7928 90.1211 67.9334 90.5649 67.9334C91.0088 67.9334 91.4345 67.7928 91.7483 67.5426C92.0622 67.2924 92.2385 66.953 92.2385 66.5991V59.6282C92.2444 58.8592 92.0596 58.097 91.6946 57.3852C91.3297 56.6734 90.7918 56.0262 90.1119 55.4808C89.432 54.9354 88.6235 54.5025 87.733 54.2072C86.8425 53.9118 85.8875 53.7598 84.923 53.7598C83.9584 53.7598 83.0035 53.9118 82.1129 54.2072C81.2224 54.5025 80.414 54.9354 79.7341 55.4808C79.0542 56.0262 78.5163 56.6734 78.1513 57.3852C77.7863 58.097 77.6015 58.8592 77.6074 59.6282V66.5991C77.6074 66.953 77.7838 67.2924 78.0976 67.5426C78.4115 67.7928 78.8371 67.9334 79.281 67.9334ZM84.9231 56.4636C85.9533 56.4652 86.9424 56.7859 87.6815 57.3581C88.4206 57.9303 88.8517 58.7092 88.8838 59.5301H80.961C80.9934 58.7091 81.4248 57.9303 82.1642 57.3582C82.9035 56.7861 83.8928 56.4656 84.9231 56.4643V56.4636ZM95.5758 67.9334H99.6663C100.835 67.9386 101.993 67.7596 103.075 67.4067C104.156 67.0538 105.14 66.5339 105.968 65.877C106.797 65.22 107.455 64.4389 107.903 63.5787C108.352 62.7184 108.583 61.7959 108.583 60.8642C108.583 59.9326 108.352 59.0101 107.903 58.1498C107.455 57.2895 106.797 56.5085 105.968 55.8515C105.14 55.1946 104.156 54.6747 103.075 54.3218C101.993 53.9689 100.835 53.7899 99.6663 53.7951H95.5758C95.132 53.7951 94.7063 53.9357 94.3924 54.1859C94.0786 54.4361 93.9023 54.7755 93.9023 55.1294V66.5991C93.9023 66.953 94.0786 67.2924 94.3924 67.5426C94.7063 67.7928 95.132 67.9334 95.5758 67.9334ZM97.2494 56.4636H99.6663C100.394 56.4595 101.116 56.5702 101.791 56.7895C102.465 57.0089 103.078 57.3323 103.595 57.7414C104.112 58.1504 104.522 58.637 104.802 59.1729C105.081 59.7089 105.225 60.2837 105.225 60.8642C105.225 61.4448 105.081 62.0196 104.802 62.5556C104.522 63.0915 104.112 63.578 103.595 63.9871C103.078 64.3961 102.465 64.7196 101.791 64.9389C101.116 65.1582 100.394 65.269 99.6663 65.2649H97.2494V56.4636ZM67.6992 97.278C68.9322 97.278 70.1376 96.9865 71.1629 96.4403C72.1882 95.8941 72.9872 95.1178 73.4591 94.2096C73.931 93.3014 74.0545 92.302 73.8139 91.3378C73.5734 90.3736 72.9796 89.4879 72.1076 88.7928C71.2357 88.0977 70.1248 87.6243 68.9155 87.4325C67.7061 87.2407 66.4525 87.3392 65.3133 87.7154C64.1741 88.0916 63.2004 88.7286 62.5153 89.546C61.8303 90.3634 61.4646 91.3244 61.4646 92.3075C61.4665 93.6253 62.124 94.8886 63.2928 95.8205C64.4616 96.7523 66.0462 97.2764 67.6992 97.278ZM67.6992 90.0064C68.2702 90.0064 68.8285 90.1414 69.3033 90.3943C69.7782 90.6473 70.1483 91.0068 70.3668 91.4274C70.5853 91.8481 70.6425 92.3109 70.5311 92.7575C70.4197 93.204 70.1447 93.6142 69.7409 93.9361C69.3371 94.2581 68.8226 94.4773 68.2625 94.5661C67.7024 94.655 67.1218 94.6094 66.5942 94.4351C66.0666 94.2609 65.6156 93.9659 65.2983 93.5873C64.9811 93.2087 64.8117 92.7637 64.8117 92.3084C64.8124 91.6979 65.1168 91.1126 65.6581 90.6809C66.1994 90.2491 66.9335 90.0062 67.6992 90.0055V90.0064Z" fill="#31CFFF"/>
</svg>
