<svg width="136" height="109" viewBox="0 0 136 109" fill="none" xmlns="http://www.w3.org/2000/svg">
<path d="M53.7388 2.24769C64.949 1.51006 71.3652 3.20934 75.3206 5.97746C79.2567 8.73207 81.0305 12.7291 82.5255 17.3481C82.8006 18.1981 83.0672 19.076 83.3388 19.9703C84.505 23.8104 85.7633 27.954 88.1842 31.4996C91.2694 36.0182 96.1707 39.535 104.804 41.0197C120.269 43.6827 128.919 50.1419 132.334 57.6693C135.744 65.1887 134.152 74.265 128.064 82.6783C115.891 99.5009 86.0116 113.072 46.1291 103.572C26.2171 98.8281 14.1804 90.2664 7.85492 80.2492C1.53224 70.2365 0.767566 58.5357 3.8664 47.2011C6.96894 35.8529 13.9303 24.952 22.9123 16.7087C31.8992 8.46099 42.8032 2.96725 53.7388 2.24769Z" fill="#BCBCBC" stroke="black" stroke-width="3"/>
<path d="M38.8179 17.8594H51.9531L38.8179 70.3046V17.8594Z" fill="#2E2E42" stroke="black" stroke-width="3"/>
<mask id="path-3-inside-1_1_205" fill="white">
<path d="M58.8624 16.3594L59.0975 16.3989L41.6839 85.9583L39.165 85.5631L56.4947 16.3594H58.8624Z"/>
</mask>
<path d="M58.8624 16.3594L59.0975 16.3989L41.6839 85.9583L39.165 85.5631L56.4947 16.3594H58.8624Z" fill="#2D2D41"/>
<path d="M58.8624 16.3594L59.3597 13.4009L59.1128 13.3594H58.8624V16.3594ZM59.0975 16.3989L62.0077 17.1274L62.796 13.9784L59.5948 13.4404L59.0975 16.3989ZM41.6839 85.9583L41.2189 88.922L43.9281 89.347L44.5941 86.6868L41.6839 85.9583ZM39.165 85.5631L36.2549 84.8344L35.4576 88.0182L38.7001 88.5269L39.165 85.5631ZM56.4947 16.3594V13.3594H54.1533L53.5846 15.6306L56.4947 16.3594ZM58.3652 19.3179L58.6003 19.3574L59.5948 13.4404L59.3597 13.4009L58.3652 19.3179ZM56.1873 15.6703L38.7737 85.2297L44.5941 86.6868L62.0077 17.1274L56.1873 15.6703ZM42.1488 82.9945L39.63 82.5994L38.7001 88.5269L41.2189 88.922L42.1488 82.9945ZM42.0752 86.2919L59.4048 17.0881L53.5846 15.6306L36.2549 84.8344L42.0752 86.2919ZM56.4947 19.3594H58.8624V13.3594H56.4947V19.3594Z" fill="black" mask="url(#path-3-inside-1_1_205)"/>
<mask id="path-5-inside-2_1_205" fill="white">
<path d="M41.6891 85.9587L59.1116 16.4121L61.6326 16.8007L44.2101 86.3472L41.6891 85.9587Z"/>
</mask>
<path d="M41.6891 85.9587L59.1116 16.4121L61.6326 16.8007L44.2101 86.3472L41.6891 85.9587Z" fill="#2D2D40"/>
<path d="M41.6891 85.9587L38.779 85.2296L37.9792 88.4223L41.2321 88.9237L41.6891 85.9587ZM59.1116 16.4121L59.5686 13.4471L56.8661 13.0306L56.2016 15.6831L59.1116 16.4121ZM61.6326 16.8007L64.5427 17.5297L65.3425 14.3371L62.0896 13.8357L61.6326 16.8007ZM44.2101 86.3472L43.7531 89.3122L46.4557 89.7288L47.1202 87.0763L44.2101 86.3472ZM44.5992 86.6877L62.0217 17.1411L56.2016 15.6831L38.779 85.2296L44.5992 86.6877ZM58.6546 19.3771L61.1756 19.7657L62.0896 13.8357L59.5686 13.4471L58.6546 19.3771ZM58.7226 16.0717L41.3001 85.6182L47.1202 87.0763L64.5427 17.5297L58.7226 16.0717ZM44.6671 83.3823L42.1461 82.9937L41.2321 88.9237L43.7531 89.3122L44.6671 83.3823Z" fill="black" mask="url(#path-5-inside-2_1_205)"/>
<mask id="path-7-inside-3_1_205" fill="white">
<path d="M44.2012 86.3473L61.6237 16.8008L64.1447 17.1893L46.7222 86.7359L44.2012 86.3473Z"/>
</mask>
<path d="M44.2012 86.3473L61.6237 16.8008L64.1447 17.1893L46.7222 86.7359L44.2012 86.3473Z" fill="#2C2C3F"/>
<path d="M44.2012 86.3473L41.2911 85.6183L40.4913 88.811L43.7442 89.3123L44.2012 86.3473ZM61.6237 16.8008L62.0807 13.8358L59.3781 13.4192L58.7136 16.0718L61.6237 16.8008ZM64.1447 17.1893L67.0548 17.9184L67.8546 14.7257L64.6017 14.2244L64.1447 17.1893ZM46.7222 86.7359L46.2652 89.7009L48.9678 90.1174L49.6323 87.4649L46.7222 86.7359ZM47.1113 87.0764L64.5338 17.5298L58.7136 16.0718L41.2911 85.6183L47.1113 87.0764ZM61.1667 19.7658L63.6877 20.1543L64.6017 14.2244L62.0807 13.8358L61.1667 19.7658ZM61.2347 16.4603L43.8121 86.0069L49.6323 87.4649L67.0548 17.9184L61.2347 16.4603ZM47.1792 83.7709L44.6582 83.3824L43.7442 89.3123L46.2652 89.7009L47.1792 83.7709Z" fill="black" mask="url(#path-7-inside-3_1_205)"/>
<mask id="path-9-inside-4_1_205" fill="white">
<path d="M46.7294 86.738L64.1519 17.1914L66.673 17.58L49.2504 87.1265L46.7294 86.738Z"/>
</mask>
<path d="M46.7294 86.738L64.1519 17.1914L66.673 17.58L49.2504 87.1265L46.7294 86.738Z" fill="#2B2B3E"/>
<path d="M46.7294 86.738L43.8194 86.0089L43.0196 89.2016L46.2724 89.703L46.7294 86.738ZM64.1519 17.1914L64.6089 14.2264L61.9064 13.8099L61.2419 16.4624L64.1519 17.1914ZM66.673 17.58L69.583 18.309L70.3828 15.1164L67.13 14.615L66.673 17.58ZM49.2504 87.1265L48.7934 90.0915L51.496 90.5081L52.1605 87.8556L49.2504 87.1265ZM49.6395 87.467L67.062 17.9204L61.2419 16.4624L43.8194 86.0089L49.6395 87.467ZM63.6949 20.1564L66.216 20.545L67.13 14.615L64.6089 14.2264L63.6949 20.1564ZM63.7629 16.851L46.3404 86.3975L52.1605 87.8556L69.583 18.309L63.7629 16.851ZM49.7075 84.1616L47.1864 83.773L46.2724 89.703L48.7934 90.0915L49.7075 84.1616Z" fill="black" mask="url(#path-9-inside-4_1_205)"/>
<mask id="path-11-inside-5_1_205" fill="white">
<path d="M49.2415 87.1257L66.6641 17.5791L69.1851 17.9677L51.7626 87.5142L49.2415 87.1257Z"/>
</mask>
<path d="M49.2415 87.1257L66.6641 17.5791L69.1851 17.9677L51.7626 87.5142L49.2415 87.1257Z" fill="#2A2A3D"/>
<path d="M49.2415 87.1257L46.3315 86.3966L45.5317 89.5893L48.7845 90.0906L49.2415 87.1257ZM66.6641 17.5791L67.1211 14.6141L64.4185 14.1976L63.754 16.8501L66.6641 17.5791ZM69.1851 17.9677L72.0952 18.6967L72.895 15.5041L69.6421 15.0027L69.1851 17.9677ZM51.7626 87.5142L51.3056 90.4792L54.0081 90.8958L54.6726 88.2433L51.7626 87.5142ZM52.1516 87.8547L69.5741 18.3081L63.754 16.8501L46.3315 86.3966L52.1516 87.8547ZM66.2071 20.5441L68.7281 20.9327L69.6421 15.0027L67.1211 14.6141L66.2071 20.5441ZM66.275 17.2387L48.8525 86.7852L54.6726 88.2433L72.0952 18.6967L66.275 17.2387ZM52.2196 84.5492L49.6985 84.1607L48.7845 90.0906L51.3056 90.4792L52.2196 84.5492Z" fill="black" mask="url(#path-11-inside-5_1_205)"/>
<mask id="path-13-inside-6_1_205" fill="white">
<path d="M51.7698 87.5163L69.1923 17.9697L71.7133 18.3583L54.2908 87.9049L51.7698 87.5163Z"/>
</mask>
<path d="M51.7698 87.5163L69.1923 17.9697L71.7133 18.3583L54.2908 87.9049L51.7698 87.5163Z" fill="#2A2A3C"/>
<path d="M51.7698 87.5163L48.8597 86.7873L48.0599 89.9799L51.3128 90.4813L51.7698 87.5163ZM69.1923 17.9697L69.6493 15.0047L66.9467 14.5882L66.2822 17.2407L69.1923 17.9697ZM71.7133 18.3583L74.6234 19.0873L75.4232 15.8947L72.1703 15.3933L71.7133 18.3583ZM54.2908 87.9049L53.8338 90.8698L56.5364 91.2864L57.2009 88.6339L54.2908 87.9049ZM54.6798 88.2453L72.1024 18.6987L66.2822 17.2407L48.8597 86.7873L54.6798 88.2453ZM68.7353 20.9347L71.2563 21.3233L72.1703 15.3933L69.6493 15.0047L68.7353 20.9347ZM68.8032 17.6293L51.3807 87.1758L57.2009 88.6339L74.6234 19.0873L68.8032 17.6293ZM54.7478 84.9399L52.2268 84.5513L51.3128 90.4813L53.8338 90.8698L54.7478 84.9399Z" fill="black" mask="url(#path-13-inside-6_1_205)"/>
<mask id="path-15-inside-7_1_205" fill="white">
<path d="M54.2819 87.9045L71.7044 18.3579L74.2254 18.7465L56.8029 88.293L54.2819 87.9045Z"/>
</mask>
<path d="M54.2819 87.9045L71.7044 18.3579L74.2254 18.7465L56.8029 88.293L54.2819 87.9045Z" fill="#29293B"/>
<path d="M54.2819 87.9045L51.3718 87.1754L50.572 90.3681L53.8249 90.8695L54.2819 87.9045ZM71.7044 18.3579L72.1614 15.3929L69.4588 14.9764L68.7943 17.6289L71.7044 18.3579ZM74.2254 18.7465L77.1355 19.4755L77.9353 16.2829L74.6824 15.7815L74.2254 18.7465ZM56.8029 88.293L56.3459 91.258L59.0484 91.6746L59.7129 89.0221L56.8029 88.293ZM57.1919 88.6335L74.6144 19.0869L68.7943 17.6289L51.3718 87.1754L57.1919 88.6335ZM71.2474 21.3229L73.7684 21.7115L74.6824 15.7815L72.1614 15.3929L71.2474 21.3229ZM71.3153 18.0175L53.8928 87.564L59.7129 89.0221L77.1355 19.4755L71.3153 18.0175ZM57.2599 85.3281L54.7389 84.9395L53.8249 90.8695L56.3459 91.258L57.2599 85.3281Z" fill="black" mask="url(#path-15-inside-7_1_205)"/>
<mask id="path-17-inside-8_1_205" fill="white">
<path d="M56.7936 88.2927L74.2161 18.7461L76.7371 19.1347L59.3146 88.6812L56.7936 88.2927Z"/>
</mask>
<path d="M56.7936 88.2927L74.2161 18.7461L76.7371 19.1347L59.3146 88.6812L56.7936 88.2927Z" fill="#28283A"/>
<path d="M56.7936 88.2927L53.8835 87.5636L53.0837 90.7563L56.3366 91.2576L56.7936 88.2927ZM74.2161 18.7461L74.6731 15.7811L71.9705 15.3646L71.306 18.0171L74.2161 18.7461ZM76.7371 19.1347L79.6472 19.8637L80.447 16.671L77.1941 16.1697L76.7371 19.1347ZM59.3146 88.6812L58.8576 91.6462L61.5602 92.0628L62.2247 89.4102L59.3146 88.6812ZM59.7037 89.0217L77.1262 19.4751L71.306 18.0171L53.8835 87.5636L59.7037 89.0217ZM73.7591 21.7111L76.2801 22.0996L77.1941 16.1697L74.6731 15.7811L73.7591 21.7111ZM73.827 18.4056L56.4045 87.9522L62.2247 89.4102L79.6472 19.8637L73.827 18.4056ZM59.7716 85.7162L57.2506 85.3277L56.3366 91.2576L58.8576 91.6462L59.7716 85.7162Z" fill="black" mask="url(#path-17-inside-8_1_205)"/>
<mask id="path-19-inside-9_1_205" fill="white">
<path d="M59.3252 88.6701L76.7477 19.1235L79.2687 19.5121L61.8462 89.0587L59.3252 88.6701Z"/>
</mask>
<path d="M59.3252 88.6701L76.7477 19.1235L79.2687 19.5121L61.8462 89.0587L59.3252 88.6701Z" fill="#282839"/>
<path d="M59.3252 88.6701L56.4151 87.9411L55.6153 91.1337L58.8682 91.6351L59.3252 88.6701ZM76.7477 19.1235L77.2047 16.1585L74.5021 15.742L73.8376 18.3945L76.7477 19.1235ZM79.2687 19.5121L82.1788 20.2411L82.9786 17.0485L79.7257 16.5471L79.2687 19.5121ZM61.8462 89.0587L61.3892 92.0237L64.0918 92.4402L64.7563 89.7877L61.8462 89.0587ZM62.2353 89.3991L79.6578 19.8526L73.8376 18.3945L56.4151 87.9411L62.2353 89.3991ZM76.2907 22.0885L78.8117 22.4771L79.7257 16.5471L77.2047 16.1585L76.2907 22.0885ZM76.3586 18.7831L58.9361 88.3296L64.7563 89.7877L82.1788 20.2411L76.3586 18.7831ZM62.3032 86.0937L59.7822 85.7051L58.8682 91.6351L61.3892 92.0237L62.3032 86.0937Z" fill="black" mask="url(#path-19-inside-9_1_205)"/>
<mask id="path-21-inside-10_1_205" fill="white">
<path d="M61.8373 89.0583L79.2598 19.5117L81.7808 19.9003L64.3583 89.4468L61.8373 89.0583Z"/>
</mask>
<path d="M61.8373 89.0583L79.2598 19.5117L81.7808 19.9003L64.3583 89.4468L61.8373 89.0583Z" fill="#272738"/>
<path d="M61.8373 89.0583L58.9272 88.3293L58.1274 91.5219L61.3803 92.0233L61.8373 89.0583ZM79.2598 19.5117L79.7168 16.5467L77.0142 16.1302L76.3497 18.7827L79.2598 19.5117ZM81.7808 19.9003L84.6909 20.6293L85.4907 17.4367L82.2378 16.9353L81.7808 19.9003ZM64.3583 89.4468L63.9013 92.4118L66.6039 92.8284L67.2684 90.1759L64.3583 89.4468ZM64.7474 89.7873L82.1699 20.2407L76.3497 18.7827L58.9272 88.3293L64.7474 89.7873ZM78.8028 22.4767L81.3238 22.8653L82.2378 16.9353L79.7168 16.5467L78.8028 22.4767ZM78.8708 19.1713L61.4482 88.7178L67.2684 90.1759L84.6909 20.6293L78.8708 19.1713ZM64.8153 86.4819L62.2943 86.0933L61.3803 92.0233L63.9013 92.4118L64.8153 86.4819Z" fill="black" mask="url(#path-21-inside-10_1_205)"/>
<mask id="path-23-inside-11_1_205" fill="white">
<path d="M64.3659 89.4494L81.7884 19.9028L84.3094 20.2914L66.8869 89.838L64.3659 89.4494Z"/>
</mask>
<path d="M64.3659 89.4494L81.7884 19.9028L84.3094 20.2914L66.8869 89.838L64.3659 89.4494Z" fill="#262637"/>
<path d="M64.3659 89.4494L61.4558 88.7204L60.656 91.913L63.9089 92.4144L64.3659 89.4494ZM81.7884 19.9028L82.2454 16.9378L79.5428 16.5213L78.8783 19.1738L81.7884 19.9028ZM84.3094 20.2914L87.2195 21.0204L88.0193 17.8278L84.7664 17.3264L84.3094 20.2914ZM66.8869 89.838L66.4299 92.803L69.1325 93.2195L69.797 90.567L66.8869 89.838ZM67.276 90.1784L84.6985 20.6319L78.8783 19.1738L61.4558 88.7204L67.276 90.1784ZM81.3314 22.8678L83.8524 23.2564L84.7664 17.3264L82.2454 16.9378L81.3314 22.8678ZM81.3993 19.5624L63.9768 89.1089L69.797 90.567L87.2195 21.0204L81.3993 19.5624ZM67.3439 86.873L64.8229 86.4844L63.9089 92.4144L66.4299 92.803L67.3439 86.873Z" fill="black" mask="url(#path-23-inside-11_1_205)"/>
<mask id="path-25-inside-12_1_205" fill="white">
<path d="M66.8772 89.8371L84.2998 20.2905L86.8208 20.6791L69.3983 90.2257L66.8772 89.8371Z"/>
</mask>
<path d="M66.8772 89.8371L84.2998 20.2905L86.8208 20.6791L69.3983 90.2257L66.8772 89.8371Z" fill="#252536"/>
<path d="M66.8772 89.8371L63.9672 89.1081L63.1674 92.3007L66.4202 92.8021L66.8772 89.8371ZM84.2998 20.2905L84.7568 17.3255L82.0542 16.909L81.3897 19.5615L84.2998 20.2905ZM86.8208 20.6791L89.7308 21.4081L90.5307 18.2155L87.2778 17.7141L86.8208 20.6791ZM69.3983 90.2257L68.9413 93.1906L71.6438 93.6072L72.3083 90.9547L69.3983 90.2257ZM69.7873 90.5661L87.2098 21.0195L81.3897 19.5615L63.9672 89.1081L69.7873 90.5661ZM83.8428 23.2555L86.3638 23.6441L87.2778 17.7141L84.7568 17.3255L83.8428 23.2555ZM83.9107 19.9501L66.4882 89.4966L72.3083 90.9547L89.7308 21.4081L83.9107 19.9501ZM69.8553 87.2607L67.3342 86.8721L66.4202 92.8021L68.9413 93.1906L69.8553 87.2607Z" fill="black" mask="url(#path-25-inside-12_1_205)"/>
<mask id="path-27-inside-13_1_205" fill="white">
<path d="M69.4058 90.2282L86.8284 20.6816L89.3494 21.0702L71.9269 90.6168L69.4058 90.2282Z"/>
</mask>
<path d="M69.4058 90.2282L86.8284 20.6816L89.3494 21.0702L71.9269 90.6168L69.4058 90.2282Z" fill="#252534"/>
<path d="M69.4058 90.2282L66.4958 89.4992L65.696 92.6918L68.9488 93.1932L69.4058 90.2282ZM86.8284 20.6816L87.2854 17.7167L84.5828 17.3001L83.9183 19.9526L86.8284 20.6816ZM89.3494 21.0702L92.2594 21.7992L93.0593 18.6066L89.8064 18.1052L89.3494 21.0702ZM71.9269 90.6168L71.4699 93.5818L74.1724 93.9983L74.8369 91.3458L71.9269 90.6168ZM72.3159 90.9572L89.7384 21.4107L83.9183 19.9526L66.4958 89.4992L72.3159 90.9572ZM86.3714 23.6466L88.8924 24.0352L89.8064 18.1052L87.2854 17.7167L86.3714 23.6466ZM86.4393 20.3412L69.0168 89.8878L74.8369 91.3458L92.2594 21.7992L86.4393 20.3412ZM72.3839 87.6518L69.8628 87.2632L68.9488 93.1932L71.4699 93.5818L72.3839 87.6518Z" fill="black" mask="url(#path-27-inside-13_1_205)"/>
<mask id="path-29-inside-14_1_205" fill="white">
<path d="M71.9176 90.6159L89.3401 21.0693L91.8611 21.4579L74.4386 91.0045L71.9176 90.6159Z"/>
</mask>
<path d="M71.9176 90.6159L89.3401 21.0693L91.8611 21.4579L74.4386 91.0045L71.9176 90.6159Z" fill="#242433"/>
<path d="M71.9176 90.6159L69.0075 89.8869L68.2077 93.0795L71.4606 93.5809L71.9176 90.6159ZM89.3401 21.0693L89.7971 18.1043L87.0945 17.6878L86.43 20.3403L89.3401 21.0693ZM91.8611 21.4579L94.7712 22.1869L95.571 18.9943L92.3181 18.4929L91.8611 21.4579ZM74.4386 91.0045L73.9816 93.9695L76.6842 94.386L77.3487 91.7335L74.4386 91.0045ZM74.8276 91.3449L92.2502 21.7984L86.43 20.3403L69.0075 89.8869L74.8276 91.3449ZM88.8831 24.0343L91.4041 24.4229L92.3181 18.4929L89.7971 18.1043L88.8831 24.0343ZM88.951 20.7289L71.5285 90.2754L77.3487 91.7335L94.7712 22.1869L88.951 20.7289ZM74.8956 88.0395L72.3746 87.6509L71.4606 93.5809L73.9816 93.9695L74.8956 88.0395Z" fill="black" mask="url(#path-29-inside-14_1_205)"/>
<mask id="path-31-inside-15_1_205" fill="white">
<path d="M74.4462 91.0065L91.8687 21.46L94.3897 21.8485L76.9672 91.3951L74.4462 91.0065Z"/>
</mask>
<path d="M74.4462 91.0065L91.8687 21.46L94.3897 21.8485L76.9672 91.3951L74.4462 91.0065Z" fill="#232332"/>
<path d="M74.4462 91.0065L71.5361 90.2775L70.7363 93.4701L73.9892 93.9715L74.4462 91.0065ZM91.8687 21.46L92.3257 18.495L89.6231 18.0784L88.9586 20.7309L91.8687 21.46ZM94.3897 21.8485L97.2998 22.5775L98.0996 19.3849L94.8467 18.8835L94.3897 21.8485ZM76.9672 91.3951L76.5102 94.3601L79.2128 94.7766L79.8773 92.1241L76.9672 91.3951ZM77.3562 91.7355L94.7788 22.189L88.9586 20.7309L71.5361 90.2775L77.3562 91.7355ZM91.4117 24.4249L93.9327 24.8135L94.8467 18.8835L92.3257 18.495L91.4117 24.4249ZM91.4796 21.1195L74.0571 90.6661L79.8773 92.1241L97.2998 22.5775L91.4796 21.1195ZM77.4242 88.4301L74.9032 88.0415L73.9892 93.9715L76.5102 94.3601L77.4242 88.4301Z" fill="black" mask="url(#path-31-inside-15_1_205)"/>
<mask id="path-33-inside-16_1_205" fill="white">
<path d="M76.9579 91.3947L94.3804 21.8481L96.9014 22.2367L79.4789 91.7833L76.9579 91.3947Z"/>
</mask>
<path d="M76.9579 91.3947L94.3804 21.8481L96.9014 22.2367L79.4789 91.7833L76.9579 91.3947Z" fill="#222231"/>
<path d="M76.9579 91.3947L74.0478 90.6657L73.248 93.8583L76.5009 94.3597L76.9579 91.3947ZM94.3804 21.8481L94.8374 18.8832L92.1348 18.4666L91.4703 21.1191L94.3804 21.8481ZM96.9014 22.2367L99.8115 22.9657L100.611 19.7731L97.3584 19.2717L96.9014 22.2367ZM79.4789 91.7833L79.0219 94.7483L81.7245 95.1648L82.389 92.5123L79.4789 91.7833ZM79.868 92.1237L97.2905 22.5772L91.4703 21.1191L74.0478 90.6657L79.868 92.1237ZM93.9234 24.8131L96.4444 25.2017L97.3584 19.2717L94.8374 18.8832L93.9234 24.8131ZM93.9914 21.5077L76.5689 91.0543L82.389 92.5123L99.8115 22.9657L93.9914 21.5077ZM79.9359 88.8183L77.4149 88.4297L76.5009 94.3597L79.0219 94.7483L79.9359 88.8183Z" fill="black" mask="url(#path-33-inside-16_1_205)"/>
<mask id="path-35-inside-17_1_205" fill="white">
<path d="M79.4865 91.7853L96.909 22.2388L99.43 22.6273L82.0075 92.1739L79.4865 91.7853Z"/>
</mask>
<path d="M79.4865 91.7853L96.909 22.2388L99.43 22.6273L82.0075 92.1739L79.4865 91.7853Z" fill="#222230"/>
<path d="M79.4865 91.7853L76.5764 91.0563L75.7766 94.249L79.0295 94.7503L79.4865 91.7853ZM96.909 22.2388L97.366 19.2738L94.6634 18.8572L93.9989 21.5098L96.909 22.2388ZM99.43 22.6273L102.34 23.3564L103.14 20.1637L99.887 19.6624L99.43 22.6273ZM82.0075 92.1739L81.5505 95.1389L84.2531 95.5554L84.9176 92.9029L82.0075 92.1739ZM82.3966 92.5144L99.8191 22.9678L93.9989 21.5098L76.5764 91.0563L82.3966 92.5144ZM96.452 25.2038L98.973 25.5923L99.887 19.6624L97.366 19.2738L96.452 25.2038ZM96.52 21.8983L79.0974 91.4449L84.9176 92.9029L102.34 23.3564L96.52 21.8983ZM82.4645 89.2089L79.9435 88.8204L79.0295 94.7503L81.5505 95.1389L82.4645 89.2089Z" fill="black" mask="url(#path-35-inside-17_1_205)"/>
<mask id="path-37-inside-18_1_205" fill="white">
<path d="M81.9982 92.1735L99.4207 22.627L101.942 23.0155L84.5192 92.5621L81.9982 92.1735Z"/>
</mask>
<path d="M81.9982 92.1735L99.4207 22.627L101.942 23.0155L84.5192 92.5621L81.9982 92.1735Z" fill="#21212F"/>
<path d="M81.9982 92.1735L79.0882 91.4445L78.2884 94.6371L81.5412 95.1385L81.9982 92.1735ZM99.4207 22.627L99.8777 19.662L97.1752 19.2454L96.5107 21.8979L99.4207 22.627ZM101.942 23.0155L104.852 23.7445L105.652 20.5519L102.399 20.0505L101.942 23.0155ZM84.5192 92.5621L84.0622 95.5271L86.7648 95.9436L87.4293 93.2911L84.5192 92.5621ZM84.9083 92.9025L102.331 23.356L96.5107 21.8979L79.0882 91.4445L84.9083 92.9025ZM98.9637 25.5919L101.485 25.9805L102.399 20.0505L99.8777 19.662L98.9637 25.5919ZM99.0317 22.2865L81.6092 91.8331L87.4293 93.2911L104.852 23.7445L99.0317 22.2865ZM84.9762 89.5971L82.4552 89.2085L81.5412 95.1385L84.0622 95.5271L84.9762 89.5971Z" fill="black" mask="url(#path-37-inside-18_1_205)"/>
<mask id="path-39-inside-19_1_205" fill="white">
<path d="M84.5268 92.5646L101.949 23.0181L104.47 23.4066L87.0478 92.9532L84.5268 92.5646Z"/>
</mask>
<path d="M84.5268 92.5646L101.949 23.0181L104.47 23.4066L87.0478 92.9532L84.5268 92.5646Z" fill="#20202E"/>
<path d="M84.5268 92.5646L81.6168 91.8356L80.8169 95.0282L84.0698 95.5296L84.5268 92.5646ZM101.949 23.0181L102.406 20.0531L99.7038 19.6365L99.0393 22.289L101.949 23.0181ZM104.47 23.4066L107.38 24.1357L108.18 20.943L104.927 20.4416L104.47 23.4066ZM87.0478 92.9532L86.5908 95.9182L89.2934 96.3347L89.9579 93.6822L87.0478 92.9532ZM87.4369 93.2936L104.859 23.7471L99.0393 22.289L81.6168 91.8356L87.4369 93.2936ZM101.492 25.9831L104.013 26.3716L104.927 20.4416L102.406 20.0531L101.492 25.9831ZM101.56 22.6776L84.1378 92.2242L89.9579 93.6822L107.38 24.1357L101.56 22.6776ZM87.5048 89.9882L84.9838 89.5996L84.0698 95.5296L86.5908 95.9182L87.5048 89.9882Z" fill="black" mask="url(#path-39-inside-19_1_205)"/>
<mask id="path-41-inside-20_1_205" fill="white">
<path d="M87.0386 92.9523L104.461 23.4058L106.982 23.7943L89.5596 93.3409L87.0386 92.9523Z"/>
</mask>
<path d="M87.0386 92.9523L104.461 23.4058L106.982 23.7943L89.5596 93.3409L87.0386 92.9523Z" fill="#20202D"/>
<path d="M87.0386 92.9523L84.1285 92.2233L83.3287 95.4159L86.5815 95.9173L87.0386 92.9523ZM104.461 23.4058L104.918 20.4408L102.215 20.0242L101.551 22.6767L104.461 23.4058ZM106.982 23.7943L109.892 24.5233L110.692 21.3307L107.439 20.8293L106.982 23.7943ZM89.5596 93.3409L89.1026 96.3059L91.8051 96.7224L92.4696 94.0699L89.5596 93.3409ZM89.9486 93.6813L107.371 24.1348L101.551 22.6767L84.1285 92.2233L89.9486 93.6813ZM104.004 26.3707L106.525 26.7593L107.439 20.8293L104.918 20.4408L104.004 26.3707ZM104.072 23.0653L86.6495 92.6119L92.4696 94.0699L109.892 24.5233L104.072 23.0653ZM90.0166 90.3759L87.4956 89.9873L86.5815 95.9173L89.1026 96.3059L90.0166 90.3759Z" fill="black" mask="url(#path-41-inside-20_1_205)"/>
<mask id="path-43-inside-21_1_205" fill="white">
<path d="M89.5671 93.3434L106.99 23.7969L109.511 24.1854L92.0882 93.732L89.5671 93.3434Z"/>
</mask>
<path d="M89.5671 93.3434L106.99 23.7969L109.511 24.1854L92.0882 93.732L89.5671 93.3434Z" fill="#1F1F2C"/>
<path d="M89.5671 93.3434L86.6571 92.6144L85.8573 95.807L89.1101 96.3084L89.5671 93.3434ZM106.99 23.7969L107.447 20.8319L104.744 20.4153L104.08 23.0679L106.99 23.7969ZM109.511 24.1854L112.421 24.9145L113.221 21.7218L109.968 21.2205L109.511 24.1854ZM92.0882 93.732L91.6312 96.697L94.3337 97.1135L94.9982 94.461L92.0882 93.732ZM92.4772 94.0725L109.9 24.5259L104.08 23.0679L86.6571 92.6144L92.4772 94.0725ZM106.533 26.7619L109.054 27.1504L109.968 21.2205L107.447 20.8319L106.533 26.7619ZM106.601 23.4564L89.1781 93.003L94.9982 94.461L112.421 24.9145L106.601 23.4564ZM92.5452 90.767L90.0241 90.3784L89.1101 96.3084L91.6312 96.697L92.5452 90.767Z" fill="black" mask="url(#path-43-inside-21_1_205)"/>
<mask id="path-45-inside-22_1_205" fill="white">
<path d="M92.0789 93.7311L109.501 24.1846L112.022 24.5731L94.5999 94.1197L92.0789 93.7311Z"/>
</mask>
<path d="M92.0789 93.7311L109.501 24.1846L112.022 24.5731L94.5999 94.1197L92.0789 93.7311Z" fill="#1E1E2B"/>
<path d="M92.0789 93.7311L89.1688 93.0021L88.369 96.1947L91.6219 96.6961L92.0789 93.7311ZM109.501 24.1846L109.958 21.2196L107.256 20.803L106.591 23.4556L109.501 24.1846ZM112.022 24.5731L114.932 25.3022L115.732 22.1095L112.479 21.6082L112.022 24.5731ZM94.5999 94.1197L94.1429 97.0847L96.8455 97.5012L97.51 94.8487L94.5999 94.1197ZM94.9889 94.4601L112.411 24.9136L106.591 23.4556L89.1688 93.0021L94.9889 94.4601ZM109.044 27.1496L111.565 27.5381L112.479 21.6082L109.958 21.2196L109.044 27.1496ZM109.112 23.8441L91.6898 93.3907L97.51 94.8487L114.932 25.3022L109.112 23.8441ZM95.0569 91.1547L92.5359 90.7661L91.6219 96.6961L94.1429 97.0847L95.0569 91.1547Z" fill="black" mask="url(#path-45-inside-22_1_205)"/>
<mask id="path-47-inside-23_1_205" fill="white">
<path d="M94.6075 94.1213L112.03 24.5747L114.551 24.9633L97.1285 94.5098L94.6075 94.1213Z"/>
</mask>
<path d="M94.6075 94.1213L112.03 24.5747L114.551 24.9633L97.1285 94.5098L94.6075 94.1213Z" fill="#1D1D2A"/>
<path d="M94.6075 94.1213L91.6974 93.3922L90.8976 96.5849L94.1505 97.0863L94.6075 94.1213ZM112.03 24.5747L112.487 21.6097L109.784 21.1932L109.12 23.8457L112.03 24.5747ZM114.551 24.9633L117.461 25.6923L118.261 22.4997L115.008 21.9983L114.551 24.9633ZM97.1285 94.5098L96.6715 97.4748L99.3741 97.8914L100.039 95.2389L97.1285 94.5098ZM97.5175 94.8503L114.94 25.3037L109.12 23.8457L91.6974 93.3922L97.5175 94.8503ZM111.573 27.5397L114.094 27.9283L115.008 21.9983L112.487 21.6097L111.573 27.5397ZM111.641 24.2343L94.2184 93.7808L100.039 95.2389L117.461 25.6923L111.641 24.2343ZM97.5855 91.5449L95.0645 91.1563L94.1505 97.0863L96.6715 97.4748L97.5855 91.5449Z" fill="black" mask="url(#path-47-inside-23_1_205)"/>
<mask id="path-49-inside-24_1_205" fill="white">
<path d="M114.546 24.9478L117.065 25.3297L99.7351 94.5335H97.3673L97.1155 94.494L114.546 24.9478Z"/>
</mask>
<path d="M114.546 24.9478L117.065 25.3297L99.7351 94.5335H97.3673L97.1155 94.494L114.546 24.9478Z" fill="#1D1D29"/>
<path d="M114.546 24.9478L114.996 21.9817L112.299 21.5727L111.636 24.2184L114.546 24.9478ZM117.065 25.3297L119.975 26.0585L120.776 22.8583L117.515 22.3636L117.065 25.3297ZM99.7351 94.5335V97.5335H102.076L102.645 95.2622L99.7351 94.5335ZM97.3673 94.5335L96.9024 97.4972L97.1335 97.5335H97.3673V94.5335ZM97.1155 94.494L94.2055 93.7646L93.4074 96.949L96.6505 97.4577L97.1155 94.494ZM114.096 27.9138L116.615 28.2958L117.515 22.3636L114.996 21.9817L114.096 27.9138ZM114.155 24.601L96.8249 93.8047L102.645 95.2622L119.975 26.0585L114.155 24.601ZM99.7351 91.5335H97.3673V97.5335H99.7351V91.5335ZM97.8323 91.5697L97.5804 91.5302L96.6505 97.4577L96.9024 97.4972L97.8323 91.5697ZM100.025 95.2233L117.456 25.6771L111.636 24.2184L94.2055 93.7646L100.025 95.2233Z" fill="black" mask="url(#path-49-inside-24_1_205)"/>
<path d="M117.412 40.5881V93.0333H104.277L117.412 40.5881Z" fill="#1C1C28" stroke="black" stroke-width="3"/>
<path d="M42.8022 81.3488L42.8023 81.3488L42.7935 81.3384C42.4618 80.9482 42.4013 80.5713 42.4813 80.2623L42.4814 80.2623L42.4843 80.2506L57.0249 22.17C57.0251 22.1692 57.0253 22.1685 57.0255 22.1677C57.1934 21.5156 58.0964 20.6914 59.6016 20.6914C59.7729 20.6914 59.9631 20.7082 60.1845 20.7406C60.1861 20.7408 60.1877 20.7411 60.1893 20.7413L111.732 28.6823L111.733 28.6824C113.467 28.9483 113.885 30.0623 113.746 30.6147L113.746 30.6157L99.2046 88.6993C99.2045 88.6998 99.2043 88.7002 99.2042 88.7007C99.0359 89.3627 98.1189 90.188 96.6287 90.188C96.4571 90.188 96.2667 90.1712 96.0449 90.1387C96.0436 90.1385 96.0422 90.1384 96.0409 90.1382L44.5062 82.1984C44.5049 82.1982 44.5037 82.198 44.5024 82.1978C43.7018 82.0695 43.1237 81.734 42.8022 81.3488Z" fill="white" stroke="black" stroke-width="3"/>
<path d="M42.8022 81.3488L42.8023 81.3488L42.7935 81.3384C42.4618 80.9482 42.4013 80.5713 42.4813 80.2623L42.4814 80.2623L42.4843 80.2506L57.0249 22.17C57.0251 22.1692 57.0253 22.1685 57.0255 22.1677C57.1934 21.5156 58.0964 20.6914 59.6016 20.6914C59.7729 20.6914 59.9631 20.7082 60.1845 20.7406C60.1861 20.7408 60.1877 20.7411 60.1893 20.7413L111.732 28.6823L111.733 28.6824C113.467 28.9483 113.885 30.0623 113.746 30.6147L113.746 30.6157L99.2046 88.6993C99.2045 88.6998 99.2043 88.7002 99.2042 88.7007C99.0359 89.3627 98.1189 90.188 96.6287 90.188C96.4571 90.188 96.2667 90.1712 96.0449 90.1387C96.0436 90.1385 96.0422 90.1384 96.0409 90.1382L44.5062 82.1984C44.5049 82.1982 44.5037 82.198 44.5024 82.1978C43.7018 82.0695 43.1237 81.734 42.8022 81.3488Z" fill="white" stroke="black" stroke-width="3"/>
<path d="M95.198 88.3384L95.1879 88.3367L95.1778 88.3352L49.8721 81.3542C49.2197 81.2537 48.7487 80.9757 48.486 80.6667C48.2234 80.3576 48.1976 80.105 48.2544 79.8931L48.2577 79.8809L48.2608 79.8686L61.0391 28.8314C61.0391 28.831 61.0392 28.8307 61.0393 28.8303C61.157 28.3673 61.8542 27.6724 63.1279 27.6724C63.3086 27.6724 63.4559 27.6827 63.5845 27.7043L63.5946 27.706L63.6047 27.7076L108.908 34.6882C108.909 34.6882 108.909 34.6883 108.909 34.6883C109.573 34.7918 110.046 35.0855 110.304 35.3862C110.552 35.6738 110.597 35.9415 110.539 36.1738L110.538 36.1741L97.7627 87.2014C97.6296 87.6837 96.9164 88.3704 95.6546 88.3704C95.474 88.3704 95.3266 88.3601 95.198 88.3384Z" fill="#31CFFF" stroke="black" stroke-width="3"/>
<path d="M100.146 20.6563L98.9754 22.4273L101.036 22.9392C102.725 23.3588 104.023 24.0095 104.81 24.6907L71.0638 19.3107C72.2533 18.9534 73.8753 18.8215 75.7124 18.9987L77.5033 19.1714L77.351 17.3786C77.3244 17.0663 77.3339 16.8539 77.3792 16.669C77.7175 15.3284 79.6682 13.9913 82.1764 14.378C82.1765 14.378 82.1766 14.378 82.1767 14.378L97.3567 16.7225L97.357 16.7226C99.8609 17.1087 100.777 18.8067 100.482 19.9498L100.479 19.9627L100.476 19.9756C100.432 20.1602 100.331 20.3761 100.146 20.6563Z" fill="#514DDF" stroke="black" stroke-width="3"/>
<path d="M75.81 17.1972C75.774 17.1935 75.738 17.19 75.702 17.1865L75.8384 16.7587C75.8275 16.9109 75.8267 17.0582 75.8319 17.1985C75.8247 17.1982 75.8174 17.1978 75.81 17.1972ZM102.024 19.8413C102.055 19.5089 102.042 19.1809 101.99 18.8616C102.06 19.1888 102.07 19.5172 102.024 19.8413ZM101.826 20.7578L101.734 21.2605C101.696 21.2498 101.658 21.2394 101.62 21.229C101.697 21.079 101.767 20.922 101.826 20.7578Z" fill="#29293A" stroke="black" stroke-width="3"/>
<mask id="path-57-inside-25_1_205" fill="white">
<path d="M80.5945 40.6748L105.925 44.762L105.485 46.4392L80.1545 42.3521L80.5945 40.6748ZM60.1186 44.0323L104.249 51.1531L103.809 52.8304L59.6786 45.7094L60.1186 44.0323ZM58.439 50.4198L102.569 57.5408L102.129 59.2181L57.999 52.0971L58.439 50.4198ZM56.763 56.7948L100.893 63.9156L100.453 65.5929L56.323 58.4719L56.763 56.7948ZM55.0836 63.1825L99.2138 70.3033L98.7739 71.9806L54.6436 64.8596L55.0836 63.1825ZM53.3059 69.9843L84.9848 75.0962L84.5449 76.7734L52.8661 71.6615L53.3059 69.9843Z"/>
</mask>
<path d="M80.5945 40.6748L105.925 44.762L105.485 46.4392L80.1545 42.3521L80.5945 40.6748ZM60.1186 44.0323L104.249 51.1531L103.809 52.8304L59.6786 45.7094L60.1186 44.0323ZM58.439 50.4198L102.569 57.5408L102.129 59.2181L57.999 52.0971L58.439 50.4198ZM56.763 56.7948L100.893 63.9156L100.453 65.5929L56.323 58.4719L56.763 56.7948ZM55.0836 63.1825L99.2138 70.3033L98.7739 71.9806L54.6436 64.8596L55.0836 63.1825ZM53.3059 69.9843L84.9848 75.0962L84.5449 76.7734L52.8661 71.6615L53.3059 69.9843Z" fill="#514DDF"/>
<path d="M80.5945 40.6748L81.0724 37.7131L78.3837 37.2793L77.6927 39.9136L80.5945 40.6748ZM105.925 44.762L108.826 45.5231L109.665 42.3267L106.402 41.8003L105.925 44.762ZM105.485 46.4392L105.007 49.4009L107.695 49.8348L108.386 47.2004L105.485 46.4392ZM80.1545 42.3521L77.2527 41.5909L76.4142 44.7874L79.6766 45.3138L80.1545 42.3521ZM60.1186 44.0323L60.5965 41.0706L57.9078 40.6367L57.2168 43.271L60.1186 44.0323ZM104.249 51.1531L107.151 51.9143L107.989 48.7178L104.727 48.1914L104.249 51.1531ZM103.809 52.8304L103.331 55.7921L106.02 56.2259L106.711 53.5916L103.809 52.8304ZM59.6786 45.7094L56.7768 44.9482L55.9383 48.1447L59.2007 48.6711L59.6786 45.7094ZM58.439 50.4198L58.9169 47.4581L56.2282 47.0243L55.5372 49.6587L58.439 50.4198ZM102.569 57.5408L105.471 58.302L106.31 55.1055L103.047 54.5791L102.569 57.5408ZM102.129 59.2181L101.651 62.1798L104.34 62.6136L105.031 59.9793L102.129 59.2181ZM57.999 52.0971L55.0972 51.3359L54.2588 54.5324L57.5211 55.0588L57.999 52.0971ZM56.763 56.7948L57.2409 53.8331L54.5522 53.3992L53.8611 56.0335L56.763 56.7948ZM100.893 63.9156L103.795 64.6768L104.634 61.4803L101.371 60.9539L100.893 63.9156ZM100.453 65.5929L99.9754 68.5546L102.664 68.9884L103.355 66.3541L100.453 65.5929ZM56.323 58.4719L53.4212 57.7107L52.5827 60.9072L55.8451 61.4336L56.323 58.4719ZM55.0836 63.1825L55.5615 60.2208L52.8728 59.787L52.1817 62.4213L55.0836 63.1825ZM99.2138 70.3033L102.116 71.0645L102.954 67.8681L99.6917 67.3416L99.2138 70.3033ZM98.7739 71.9806L98.296 74.9423L100.985 75.3762L101.676 72.7418L98.7739 71.9806ZM54.6436 64.8596L51.7418 64.0984L50.9033 67.2949L54.1657 67.8213L54.6436 64.8596ZM53.3059 69.9843L53.7838 67.0226L51.0949 66.5887L50.404 69.2234L53.3059 69.9843ZM84.9848 75.0962L87.8867 75.8574L88.7252 72.661L85.4628 72.1345L84.9848 75.0962ZM84.5449 76.7734L84.067 79.7351L86.7556 80.1689L87.4467 77.5346L84.5449 76.7734ZM52.8661 71.6615L49.9642 70.9005L49.1261 74.0967L52.3882 74.6231L52.8661 71.6615ZM80.1166 43.6365L105.447 47.7237L106.402 41.8003L81.0724 37.7131L80.1166 43.6365ZM103.023 44.0008L102.583 45.6781L108.386 47.2004L108.826 45.5231L103.023 44.0008ZM105.962 43.4775L80.6324 39.3904L79.6766 45.3138L105.007 49.4009L105.962 43.4775ZM83.0564 43.1132L83.4963 41.436L77.6927 39.9136L77.2527 41.5909L83.0564 43.1132ZM59.6407 46.9939L103.771 54.1148L104.727 48.1914L60.5965 41.0706L59.6407 46.9939ZM101.347 50.3919L100.907 52.0692L106.711 53.5916L107.151 51.9143L101.347 50.3919ZM104.287 49.8687L60.1565 42.7477L59.2007 48.6711L103.331 55.7921L104.287 49.8687ZM62.5804 46.4706L63.0204 44.7935L57.2168 43.271L56.7768 44.9482L62.5804 46.4706ZM57.9611 53.3815L102.091 60.5025L103.047 54.5791L58.9169 47.4581L57.9611 53.3815ZM99.6674 56.7796L99.2275 58.4569L105.031 59.9793L105.471 58.302L99.6674 56.7796ZM102.607 56.2564L58.477 49.1354L57.5211 55.0588L101.651 62.1798L102.607 56.2564ZM60.9009 52.8583L61.3408 51.181L55.5372 49.6587L55.0972 51.3359L60.9009 52.8583ZM56.2851 59.7565L100.415 66.8773L101.371 60.9539L57.2409 53.8331L56.2851 59.7565ZM97.9914 63.1545L97.5514 64.8317L103.355 66.3541L103.795 64.6768L97.9914 63.1545ZM100.931 62.6312L56.8009 55.5102L55.8451 61.4336L99.9754 68.5546L100.931 62.6312ZM59.2248 59.2331L59.6648 57.556L53.8611 56.0335L53.4212 57.7107L59.2248 59.2331ZM54.6057 66.1442L98.7359 73.265L99.6917 67.3416L55.5615 60.2208L54.6057 66.1442ZM96.312 69.5422L95.872 71.2194L101.676 72.7418L102.116 71.0645L96.312 69.5422ZM99.2518 69.0189L55.1215 61.8979L54.1657 67.8213L98.296 74.9423L99.2518 69.0189ZM57.5454 65.6209L57.9854 63.9437L52.1817 62.4213L51.7418 64.0984L57.5454 65.6209ZM52.828 72.946L84.5069 78.0579L85.4628 72.1345L53.7838 67.0226L52.828 72.946ZM82.083 74.335L81.6431 76.0121L87.4467 77.5346L87.8867 75.8574L82.083 74.335ZM85.0228 73.8117L53.3441 68.6998L52.3882 74.6231L84.067 79.7351L85.0228 73.8117ZM55.768 72.4224L56.2078 70.7453L50.404 69.2234L49.9642 70.9005L55.768 72.4224Z" fill="black" mask="url(#path-57-inside-25_1_205)"/>
</svg>
