<svg width="136" height="108" viewBox="0 0 136 108" fill="none" xmlns="http://www.w3.org/2000/svg">
<path d="M65.4913 12.2672H46.4084C45.541 12.2672 44.8313 11.61 44.8313 10.8068C44.8313 10.0036 45.541 9.34644 46.4084 9.34644H65.4913C66.3587 9.34644 67.0684 10.0036 67.0684 10.8068C67.0684 11.61 66.3587 12.2672 65.4913 12.2672Z" fill="#31CFFF"/>
<path d="M55.9498 98.9848C53.7103 98.9848 51.8809 97.2907 51.8809 95.217C51.8809 93.1433 53.7103 91.4492 55.9498 91.4492C58.1893 91.4492 60.0187 93.1433 60.0187 95.217C60.0345 97.2907 58.1893 98.9848 55.9498 98.9848Z" fill="#2D2220"/>
<path d="M82.3347 87.2871C82.3347 88.0319 81.6723 88.6453 80.868 88.6453H31.0315C30.2272 88.6453 29.5648 88.0319 29.5648 87.2871V17.7292C29.5648 16.9845 30.2272 16.3711 31.0315 16.3711H80.8522C81.6566 16.3711 82.319 16.9845 82.319 17.7292V87.2871H82.3347Z" fill="#BCBCBC"/>
<path d="M35.2269 31.4277C33.0821 31.4277 31.3315 33.0488 31.3315 35.0349C31.3315 37.021 33.0821 38.642 35.2269 38.642C37.3718 38.642 39.1224 37.021 39.1224 35.0349C39.1224 33.0488 37.3718 31.4277 35.2269 31.4277ZM114.429 64.0818C109.792 64.0818 106.007 67.5867 106.007 71.8803C106.007 76.1738 109.792 79.6787 114.429 79.6787C119.066 79.6787 122.851 76.1738 122.851 71.8803C122.851 67.5867 119.066 64.0818 114.429 64.0818Z" fill="white"/>
<path d="M114.429 61.1604C108.042 61.1604 102.853 65.9651 102.853 71.8796C102.853 77.7941 108.042 82.5988 114.429 82.5988C120.816 82.5988 126.005 77.7941 126.005 71.8796C126.005 65.9651 120.816 61.1604 114.429 61.1604ZM106.007 71.8796C106.007 67.5861 109.792 64.0812 114.429 64.0812C119.066 64.0812 122.851 67.5861 122.851 71.8796C122.851 76.1731 119.066 79.678 114.429 79.678C109.777 79.678 106.007 76.1731 106.007 71.8796Z" fill="#2D2220"/>
<path d="M45.3047 59.4373C43.5068 59.4373 42.0558 60.7808 42.0558 62.4456C42.0558 64.1105 43.5068 65.454 45.3047 65.454C47.1026 65.454 48.5535 64.1105 48.5535 62.4456C48.5535 60.7808 47.0868 59.4373 45.3047 59.4373ZM7.8642 41.2263C5.71934 41.2263 3.96875 42.8473 3.96875 44.8335C3.96875 46.8196 5.71934 48.4406 7.8642 48.4406C10.0091 48.4406 11.7596 46.8196 11.7596 44.8335C11.7596 42.8473 10.0091 41.2263 7.8642 41.2263Z" fill="white"/>
<path d="M17.8155 40.2483C17.5317 39.4889 16.6485 39.08 15.8126 39.3282L12.8634 40.2483C11.586 39.0508 9.81962 38.306 7.84824 38.306C3.96856 38.306 0.798584 41.2267 0.798584 44.8339C0.798584 48.441 3.95279 51.3618 7.84824 51.3618C11.7437 51.3618 14.8979 48.441 14.8979 44.8339C14.8979 44.1329 14.7717 43.4465 14.5509 42.8186L16.822 42.1176C17.6421 41.8401 18.0836 41.0223 17.8155 40.2483ZM7.86401 48.4264C5.71915 48.4264 3.96856 46.8054 3.96856 44.8193C3.96856 42.8332 5.71915 41.2121 7.86401 41.2121C10.0089 41.2121 11.7595 42.8332 11.7595 44.8193C11.7595 46.8054 10.0089 48.4264 7.86401 48.4264ZM39.5796 42.1176L39.0276 40.5112C40.9674 39.3429 42.2607 37.3275 42.2607 35.0347C42.2607 31.4422 39.1065 28.5068 35.211 28.5068C31.3156 28.5068 28.1613 31.4276 28.1613 35.0347C28.1613 38.6419 31.3156 41.5626 35.211 41.5626C35.4949 41.5626 35.7788 41.548 36.0469 41.5188L36.5515 43.0084C36.7566 43.6364 37.3874 44.0307 38.0498 44.0307C38.2075 44.0307 38.3652 44.0015 38.5229 43.9577C39.3903 43.7094 39.8477 42.877 39.5796 42.1176ZM36.6619 38.379C36.5989 38.3936 36.5358 38.4228 36.4885 38.4374C36.0942 38.5689 35.6684 38.6419 35.2268 38.6419C33.0819 38.6419 31.3313 37.0208 31.3313 35.0347C31.3313 33.0486 33.0819 31.4276 35.2268 31.4276C37.3716 31.4276 39.1222 33.0486 39.1222 35.0347C39.1222 36.5389 38.0971 37.8387 36.6619 38.379ZM40.9359 52.3694C41.0936 52.3694 41.2513 52.3402 41.409 52.2964C42.2449 52.0482 42.7022 51.2303 42.4341 50.4709L41.4879 47.6816C41.2198 46.9076 40.3366 46.4841 39.5165 46.7324C38.6806 46.9806 38.2233 47.7984 38.4914 48.5578L39.4376 51.3472C39.6427 51.9751 40.2577 52.3694 40.9359 52.3694ZM56.7069 53.4793L55.4452 54.3702C54.7513 54.8521 54.6094 55.7721 55.1456 56.4147C55.461 56.7944 55.9342 56.9842 56.4073 56.9842C56.7385 56.9842 57.0697 56.882 57.3535 56.6922L58.6152 55.8013C59.3092 55.3194 59.4511 54.3994 58.9149 53.7568C58.3944 53.1142 57.4009 52.9974 56.7069 53.4793ZM71.4686 44.9215C70.9482 44.2789 69.9546 44.1475 69.2607 44.644L67.999 45.5349C67.3051 46.0168 67.1631 46.9368 67.6994 47.5794C68.0148 47.9591 68.4879 48.1489 68.961 48.1489C69.2922 48.1489 69.6234 48.0467 69.9073 47.8569L71.169 46.966C71.8629 46.4841 72.0048 45.5641 71.4686 44.9215ZM62.9838 49.0544L61.7221 49.9452C61.0282 50.4271 60.8863 51.3472 61.4225 51.9897C61.7379 52.3694 62.211 52.5593 62.6842 52.5593C63.0153 52.5593 63.3465 52.4571 63.6304 52.2672L64.8921 51.3764C65.586 50.8945 65.728 49.9744 65.1918 49.3318C64.6713 48.7039 63.6777 48.5724 62.9838 49.0544ZM50.4301 57.9043L49.8623 58.2986C48.6952 57.2033 47.0866 56.5169 45.3045 56.5169C45.0364 56.5169 44.784 56.5315 44.5317 56.5607L44.3582 56.035C44.0901 55.261 43.2069 54.8375 42.3711 55.0857C41.5352 55.334 41.0778 56.1518 41.3459 56.9258L41.5825 57.6414C39.9581 58.7221 38.9014 60.4745 38.9014 62.4607C38.9014 65.7319 41.7718 68.3898 45.3045 68.3898C48.8372 68.3898 51.7075 65.7319 51.7075 62.4607C51.7075 61.9057 51.6287 61.3654 51.4709 60.8542L52.3384 60.2409C53.0323 59.759 53.1742 58.8389 52.638 58.1964C52.1176 57.5392 51.124 57.4077 50.4301 57.9043ZM42.0556 62.4461C42.0556 60.7812 43.5066 59.4377 45.3045 59.4377C47.1024 59.4377 48.5533 60.7812 48.5533 62.4461C48.5533 64.1109 47.1024 65.4544 45.3045 65.4544C43.5066 65.4544 42.0556 64.1109 42.0556 62.4461Z" fill="#2D2220"/>
<path d="M123.86 40.2773H92.8067V11.0697C92.8067 4.96529 87.4445 0 80.8522 0H31.0315C24.4392 0 19.0771 4.96529 19.0771 11.0697V96.5603C19.0771 102.665 24.4392 107.63 31.0315 107.63H123.844C130.436 107.63 135.799 102.723 135.799 96.6917V51.2301C135.814 45.1841 130.452 40.2773 123.86 40.2773ZM80.868 101.788H31.0315C27.9246 101.788 25.3855 99.4519 25.3855 96.5603V39.4303L25.7798 39.3134C26.5998 39.0506 27.0414 38.2327 26.7733 37.4587C26.5683 36.8892 26.0005 36.5095 25.4012 36.4657V11.0843C25.4012 8.20733 27.9246 5.85612 31.0473 5.85612H80.868C83.9749 5.85612 86.514 8.19273 86.514 11.0843V43.2272C86.2144 43.2564 85.899 43.3733 85.6466 43.5631C84.9842 44.0889 84.9054 45.0089 85.4732 45.6223L86.4983 46.7322L86.514 46.7468V96.5749C86.4983 99.4519 83.9749 101.788 80.868 101.788ZM129.506 96.6917C129.506 99.5103 126.983 101.788 123.86 101.788H91.4031C92.302 100.226 92.8225 98.4588 92.8225 96.5603V52.7927C93.1852 52.7927 93.5479 52.6759 93.8318 52.4422C94.4942 51.9165 94.573 50.9965 94.0053 50.3831L92.9802 49.2732C92.9329 49.2148 92.8698 49.171 92.8067 49.1126V46.1188H123.86C126.967 46.1188 129.506 48.4116 129.506 51.2155V96.6917Z" fill="#2D2220"/>
<path d="M103.216 60.3871C102.648 59.7737 101.655 59.7007 100.992 60.2265C100.33 60.7522 100.251 61.6722 100.819 62.2856L101.844 63.3955C102.159 63.7314 102.601 63.9066 103.042 63.9066C103.405 63.9066 103.768 63.7898 104.068 63.5561C104.73 63.0304 104.809 62.1103 104.241 61.497L103.216 60.3871ZM98.0903 54.8376C97.5226 54.2243 96.529 54.1513 95.8666 54.677C95.2042 55.2027 95.1254 56.1228 95.6931 56.7361L96.7182 57.846C97.0337 58.1819 97.4753 58.3572 97.9168 58.3572C98.2796 58.3572 98.6423 58.2403 98.942 58.0067C99.6043 57.4809 99.6832 56.5609 99.1154 55.9475L98.0903 54.8376Z" fill="#2D2220"/>
<path d="M81.8301 26.4475C76.531 26.4475 72.2255 30.4343 72.2255 35.3412C72.2255 40.2481 76.531 44.2349 81.8301 44.2349C87.1292 44.2349 91.4347 40.2481 91.4347 35.3412C91.4347 30.4343 87.1292 26.4475 81.8301 26.4475Z" fill="white"/>
<path d="M81.83 23.5269C74.7961 23.5269 69.0713 28.828 69.0713 35.3413C69.0713 41.8546 74.7961 47.1558 81.83 47.1558C88.8639 47.1558 94.5888 41.8546 94.5888 35.3413C94.5888 28.828 88.8639 23.5269 81.83 23.5269ZM72.2412 35.3413C72.2412 30.4345 76.5467 26.4476 81.8458 26.4476C87.1449 26.4476 91.4504 30.4345 91.4504 35.3413C91.4504 40.2482 87.1449 44.235 81.8458 44.235C76.5467 44.235 72.2412 40.2482 72.2412 35.3413Z" fill="#2D2220"/>
</svg>
