<svg width="31" height="26" viewBox="0 0 31 26" fill="none" xmlns="http://www.w3.org/2000/svg">
<path d="M22.5911 8.28245C23.5419 7.31642 24.4857 5.06235 20.5243 7.79944C16.8237 10.3872 13.0981 12.9377 9.34789 15.4507C8.77682 15.7131 8.15944 15.8554 7.53285 15.8693C6.90626 15.8831 6.28339 15.7681 5.70164 15.5312C3.32478 14.8067 0.550052 13.8406 0.550052 13.8406C0.550052 13.8406 -1.34455 12.6313 1.89866 11.3433C1.89866 11.3433 15.6104 5.62587 20.3658 3.61156C22.1881 2.80653 28.3697 0.230451 28.3697 0.230451C28.3697 0.230451 31.2236 -0.898334 30.9859 1.8405C30.9067 2.96754 30.2729 6.91566 29.639 11.1823C28.6866 17.2217 27.6566 23.8264 27.6566 23.8264C27.6566 23.8264 27.4981 25.678 26.1513 26C24.7094 25.9752 23.3164 25.4656 22.1898 24.551C21.8729 24.3094 16.2459 20.6851 14.1843 18.914C13.9746 18.7697 13.8042 18.5738 13.689 18.3445C13.5738 18.1153 13.5175 17.8602 13.5254 17.603C13.5334 17.3457 13.6052 17.0947 13.7342 16.8732C13.8633 16.6517 14.0453 16.467 14.2635 16.3362C17.0912 13.7075 19.8676 11.0224 22.5911 8.28245Z" fill="white"/>
</svg>
