<svg width="135" height="108" viewBox="0 0 135 108" fill="none" xmlns="http://www.w3.org/2000/svg">
<path d="M78.7747 99.9421H35.1508C33.7026 99.9421 32.525 101.316 32.525 103.005C32.525 104.694 33.7026 106.067 35.1508 106.067H78.7747C80.223 106.067 81.4006 104.694 81.4006 103.005C81.4006 101.3 80.223 99.9421 78.7747 99.9421Z" fill="#005BFF"/>
<path d="M121.844 95.364V101.521H129.302C128.205 97.9372 125.282 95.364 121.844 95.364Z" fill="#E6E6E6"/>
<path d="M108.674 80.2886V10.719C108.674 8.17744 106.901 6.12524 104.735 6.12524H9.19033C7.01116 6.12524 5.25159 8.19323 5.25159 10.719V80.2886C5.25159 82.8302 7.0247 84.8823 9.19033 84.8823H104.735C106.914 84.8981 108.674 82.8302 108.674 80.2886ZM102.732 73.6584C102.732 76.1842 100.959 78.2522 98.7933 78.2522H15.1458C12.9802 78.2522 11.2071 76.1842 11.2071 73.6584V17.365C11.2071 14.8392 12.9802 12.7712 15.1458 12.7712H98.7933C100.959 12.7712 102.732 14.8392 102.732 17.365V73.6584Z" fill="white"/>
<path d="M98.7933 12.7708H15.1458C12.9802 12.7708 11.2071 14.8387 11.2071 17.3645V73.6579C11.2071 76.1837 12.9802 78.2517 15.1458 78.2517H98.7933C100.959 78.2517 102.732 76.1837 102.732 73.6579V17.3645C102.732 14.8387 100.959 12.7708 98.7933 12.7708ZM27.9637 17.8539C27.9637 17.6013 28.1396 17.4119 28.3426 17.4119H36.6397C36.8563 17.4119 37.0187 17.6171 37.0187 17.8539V20.6165C37.0187 20.869 36.8427 21.0585 36.6397 21.0585H28.3426C28.1261 21.0585 27.9637 20.8533 27.9637 20.6165V17.8539ZM23.8625 17.3014C24.7558 17.3014 25.4732 18.138 25.4732 19.1799C25.4732 20.2218 24.7558 21.0585 23.8625 21.0585C22.9692 21.0585 22.2518 20.2218 22.2518 19.1799C22.2518 18.138 22.9827 17.3014 23.8625 17.3014ZM18.5838 17.3014C19.4771 17.3014 20.1945 18.138 20.1945 19.1799C20.1945 20.2218 19.4771 21.0585 18.5838 21.0585C17.6904 21.0585 16.9731 20.2218 16.9731 19.1799C16.9731 18.138 17.6904 17.3014 18.5838 17.3014ZM50.7028 45.9848C50.7028 56.6878 43.2314 65.4018 34.0545 65.4018C24.8776 65.4018 17.4062 56.6878 17.4062 45.9848C17.4062 35.2818 24.8776 26.5678 34.0545 26.5678H35.3674V44.4536H50.7028V45.9848ZM38.5076 39.8756V24.9261C45.5865 24.9261 51.3254 31.6194 51.3254 39.8756H38.5076ZM89.0751 63.3811H70.031C69.3001 63.3811 68.7181 62.7023 68.7181 61.8499C68.7181 60.9974 69.3001 60.3186 70.031 60.3186H89.0751C89.806 60.3186 90.388 60.9974 90.388 61.8499C90.388 62.6866 89.806 63.3811 89.0751 63.3811ZM89.0751 51.8099H69.3678C68.6369 51.8099 68.0549 51.1311 68.0549 50.2786C68.0549 49.4262 68.6369 48.7474 69.3678 48.7474H89.0751C89.806 48.7474 90.388 49.4262 90.388 50.2786C90.388 51.1311 89.806 51.8099 89.0751 51.8099ZM89.0751 40.2229H60.7053C59.9744 40.2229 59.3924 39.5441 59.3924 38.6916C59.3924 37.8392 59.9744 37.1604 60.7053 37.1604H89.0886C89.8195 37.1604 90.4015 37.8392 90.4015 38.6916C90.4015 39.5441 89.806 40.2229 89.0751 40.2229ZM89.0751 28.6516H60.7053C59.9744 28.6516 59.3924 27.9728 59.3924 27.1204C59.3924 26.2679 59.9744 25.5891 60.7053 25.5891H89.0886C89.8195 25.5891 90.4015 26.2679 90.4015 27.1204C90.4015 27.9728 89.806 28.6516 89.0751 28.6516Z" fill="#E6E6E6"/>
<path d="M32.7416 29.7095C25.6221 30.483 20.0321 37.492 20.0321 45.985C20.0321 54.9989 26.3259 62.3394 34.0545 62.3394C41.3365 62.3394 47.3461 55.8198 48.0093 47.5162H32.7416V29.7095Z" fill="white"/>
<path d="M35.3674 26.5681H34.0544C24.8776 26.5681 17.4062 35.2821 17.4062 45.9851C17.4062 56.6881 24.8776 65.402 34.0544 65.402C43.2313 65.402 50.7027 56.6881 50.7027 45.9851V44.4538H35.3674V26.5681ZM48.0092 47.5321C47.346 55.8356 41.3364 62.3553 34.0544 62.3553C26.3258 62.3553 20.032 55.0148 20.032 46.0009C20.032 37.5079 25.622 30.4989 32.7415 29.7253V47.5321H48.0092Z" fill="#005BFF"/>
<path d="M38.5076 24.9263V39.8757H51.3255C51.3255 31.6196 45.5865 24.9263 38.5076 24.9263Z" fill="#005BFF"/>
<path d="M16.973 19.1803C16.973 19.6785 17.1427 20.1564 17.4447 20.5086C17.7468 20.8609 18.1565 21.0589 18.5836 21.0589C19.0108 21.0589 19.4205 20.8609 19.7226 20.5086C20.0246 20.1564 20.1943 19.6785 20.1943 19.1803C20.1943 18.6821 20.0246 18.2043 19.7226 17.852C19.4205 17.4997 19.0108 17.3018 18.5836 17.3018C18.1565 17.3018 17.7468 17.4997 17.4447 17.852C17.1427 18.2043 16.973 18.6821 16.973 19.1803Z" fill="white"/>
<path d="M22.2516 19.1803C22.2516 19.6785 22.4213 20.1564 22.7234 20.5086C23.0255 20.8609 23.4352 21.0589 23.8623 21.0589C24.2895 21.0589 24.6992 20.8609 25.0013 20.5086C25.3033 20.1564 25.473 19.6785 25.473 19.1803C25.473 18.6821 25.3033 18.2043 25.0013 17.852C24.6992 17.4997 24.2895 17.3018 23.8623 17.3018C23.4352 17.3018 23.0255 17.4997 22.7234 17.852C22.4213 18.2043 22.2516 18.6821 22.2516 19.1803Z" fill="white"/>
<path d="M28.3425 21.0587H36.6396C36.8562 21.0587 37.0186 20.8535 37.0186 20.6167V17.8541C37.0186 17.6015 36.8426 17.4121 36.6396 17.4121H28.3425C28.126 17.4121 27.9636 17.6173 27.9636 17.8541V20.6167C27.9636 20.8693 28.1395 21.0587 28.3425 21.0587Z" fill="white"/>
<path d="M121.844 89.2233C115.482 89.2233 110.163 94.5117 108.945 101.505H93.2845C91.7009 101.505 90.5504 101.142 90.1444 100.51C89.8737 100.084 89.8737 99.4054 89.8737 99.0897V91.0229H104.749C109.825 91.0229 113.939 86.2082 113.939 80.3041V10.7188C113.939 4.79899 109.811 0 104.749 0H9.1904C4.1147 0 0 4.81477 0 10.7188V80.2884C0 86.2082 4.12823 91.0072 9.1904 91.0072H84.6085V99.0897C84.6085 99.8474 84.6085 102.136 85.9485 104.204C87.4238 106.478 89.8872 107.63 93.2845 107.63H135V104.567C135 96.1061 129.099 89.2233 121.844 89.2233ZM9.1904 84.8979C7.01123 84.8979 5.25165 82.8299 5.25165 80.3041V10.7188C5.25165 8.17722 7.02477 6.12503 9.1904 6.12503H104.735C106.914 6.12503 108.674 8.19301 108.674 10.7188V80.2884C108.674 82.8299 106.901 84.8821 104.735 84.8821H9.1904V84.8979ZM121.844 101.505H114.386C115.469 97.9215 118.406 95.3483 121.844 95.3483C125.282 95.3483 128.219 97.9215 129.302 101.505H121.844Z" fill="#2D2220"/>
<path d="M89.075 25.5894H60.7053C59.9744 25.5894 59.3924 26.2682 59.3924 27.1206C59.3924 27.9731 59.9744 28.6519 60.7053 28.6519H89.0886C89.8195 28.6519 90.4015 27.9731 90.4015 27.1206C90.4015 26.2682 89.8059 25.5894 89.075 25.5894Z" fill="#005BFF"/>
<path d="M89.075 37.1604H60.7053C59.9744 37.1604 59.3924 37.8392 59.3924 38.6917C59.3924 39.5441 59.9744 40.2229 60.7053 40.2229H89.0886C89.8195 40.2229 90.4015 39.5441 90.4015 38.6917C90.4015 37.8392 89.8059 37.1604 89.075 37.1604ZM89.075 48.7474H69.3678C68.6369 48.7474 68.0549 49.4262 68.0549 50.2787C68.0549 51.1311 68.6369 51.8099 69.3678 51.8099H89.075C89.8059 51.8099 90.388 51.1311 90.388 50.2787C90.388 49.4262 89.8059 48.7474 89.075 48.7474Z" fill="#06F3FF"/>
<path d="M89.0752 60.3188H70.0311C69.3002 60.3188 68.7182 60.9976 68.7182 61.8501C68.7182 62.7025 69.3002 63.3814 70.0311 63.3814H89.0752C89.8061 63.3814 90.3881 62.7025 90.3881 61.8501C90.3881 60.9976 89.8061 60.3188 89.0752 60.3188Z" fill="#005BFF"/>
</svg>
